<?xml version="1.0" standalone="no"?>
<!DOCTYPE svg PUBLIC "-//W3C//DTD SVG 1.1//EN" "http://www.w3.org/Graphics/SVG/1.1/DTD/svg11.dtd" >
<svg xmlns="http://www.w3.org/2000/svg" xmlns:xlink="http://www.w3.org/1999/xlink" version="1.1">
<metadata></metadata>
<defs>
<font id="rajdhanibold" horiz-adv-x="1060" >
<font-face units-per-em="2048" ascent="1638" descent="-410" />
<missing-glyph horiz-adv-x="450" />
<glyph horiz-adv-x="0" />
<glyph horiz-adv-x="682" />
<glyph horiz-adv-x="0" />
<glyph horiz-adv-x="0" />
<glyph unicode="&#xd;" horiz-adv-x="681" />
<glyph unicode=" "  horiz-adv-x="450" />
<glyph unicode="&#x09;" horiz-adv-x="450" />
<glyph unicode="&#xa0;" horiz-adv-x="450" />
<glyph unicode="!" horiz-adv-x="487" d="M102 956v318q0 43 43 43h195q43 0 43 -43v-318q0 -82 -9 -183t-13.5 -150.5t-8.5 -80t-4 -32.5q-8 -43 -47 -43h-117q-39 0 -47 43q0 2 -4 32.5t-9 80t-9 106.5q-13 168 -13 227zM377 295v-252q0 -43 -41 -43h-180q-41 0 -41 45v248q0 41 41 41h180q41 0 41 -39z" />
<glyph unicode="&#x22;" horiz-adv-x="722" d="M205 848h-31q-39 0 -43 47l-55 383q-6 39 37 39h157q41 0 35 -39l-53 -387q-10 -43 -47 -43zM547 848h-31q-39 0 -43 47l-55 383q-6 39 37 39h157q41 0 35 -39l-53 -387q-10 -43 -47 -43z" />
<glyph unicode="#" horiz-adv-x="1370" d="M1257 1030q41 0 41 -43v-121q0 -45 -41 -45h-200l-78 -325h178q41 0 41 -45v-121q0 -43 -41 -43h-229l-60 -244q-8 -43 -45 -43h-129q-47 0 -35 45l60 242h-232l-59 -244q-12 -43 -53 -43h-121q-45 0 -35 45l60 242h-164q-43 0 -43 43v121q0 45 43 45h215l78 325h-193 q-43 0 -43 45v121q0 43 43 43h244l59 244q10 43 45 43h127q47 0 37 -45l-59 -242h231l59 244q12 43 54 43h118q49 0 37 -45l-59 -242h149zM770 496l78 325h-232l-77 -325h231z" />
<glyph unicode="$" horiz-adv-x="1079" d="M606 -201h-123q-43 0 -43 43v158h-14q-156 0 -243 89t-87 247v39q0 43 43 43h174q43 0 43 -43v-15q0 -78 31 -106.5t113 -28.5h82q80 0 111.5 31t31.5 115v30q0 51 -30.5 80t-71.5 39q-37 8 -144.5 18.5t-161 26t-108.5 51.5q-115 74 -115 289v76q0 162 87 249t245 87h14 v162q0 43 43 43h123q43 0 43 -43v-162h4q145 0 229.5 -90t84.5 -246v-39q0 -43 -43 -43h-174q-43 0 -43 43v14q0 78 -30 107t-114 29h-65q-84 0 -114 -32t-30 -124v-41q0 -45 31 -70.5t70 -33.5q45 -8 152.5 -17.5t161.5 -27t108 -54.5q109 -78 108 -278v-78 q0 -160 -89 -248t-243 -88h-4v-158q0 -43 -43 -43z" />
<glyph unicode="%" horiz-adv-x="1517" d="M1161 481h-47q-45 0 -61.5 -17.5t-16.5 -60.5v-178q0 -45 16.5 -62.5t61.5 -17.5h47q43 0 60.5 18.5t17.5 61.5v178q0 43 -16.5 60.5t-61.5 17.5zM1075 627h121q106 0 161.5 -55.5t55.5 -159.5v-197q0 -104 -55 -159.5t-162 -55.5h-121q-104 0 -160.5 55.5t-56.5 159.5 v197q0 104 56.5 159.5t160.5 55.5zM403 1174h-47q-45 0 -61 -17.5t-16 -62.5v-179q0 -43 16 -60t61 -17h47q45 0 61.5 17t16.5 60v179q0 43 -17.5 61.5t-60.5 18.5zM319 1319h121q106 0 161.5 -55.5t55.5 -159.5v-197q0 -104 -55 -159.5t-162 -55.5h-121q-104 0 -160.5 55.5 t-56.5 159.5v197q0 104 56.5 159.5t160.5 55.5zM555 0h-106q-47 0 -31 43q66 168 244 615.5t243 615.5q18 43 53 43h109q47 0 31 -43l-488 -1231q-16 -43 -55 -43z" />
<glyph unicode="&#x26;" horiz-adv-x="1265" d="M455 227h86q86 0 98 82l-223 262q-49 -2 -68.5 -32.5t-19.5 -104.5v-88q0 -63 29.5 -91t97.5 -28zM541 0h-125q-162 0 -250 86t-88 246v119q0 102 54 181t153 91q-80 104 -80 240v22q0 158 95 245t259 87h68q162 0 250 -86t88 -246v-70q0 -45 -43 -45h-174q-43 0 -43 45 v66q0 63 -25 91t-78 28h-16q-59 0 -86 -28t-27 -91v-27q0 -80 90 -182l96 -110h455q43 0 43 -46v-139q0 -43 -43 -43h-266l334 -397q10 -12 6 -24.5t-19 -12.5h-219q-49 0 -71 29l-91 106q-23 -72 -80.5 -103.5t-166.5 -31.5z" />
<glyph unicode="'" horiz-adv-x="385" d="M209 920h-35q-39 0 -45 38l-49 256q-6 33 37 33h151q43 0 35 -33l-47 -260q-10 -34 -47 -34z" />
<glyph unicode="(" horiz-adv-x="626" d="M477 1135h-6q-174 0 -174 -238v-686q0 -238 178 -238h2q23 0 31 -8t8 -28v-115q0 -18 -7 -24.5t-32 -6.5h-6q-180 0 -281.5 109.5t-101.5 343.5v620q0 233 102.5 343t282.5 110h6q23 0 30 -6t7 -25v-115q0 -20 -8 -28t-31 -8z" />
<glyph unicode=")" horiz-adv-x="626" d="M88 -178v115q0 37 39 36h2q178 0 178 238v686q0 238 -178 238h-2q-39 0 -39 36v115q0 18 8 24.5t31 6.5h2q180 0 283.5 -109.5t103.5 -343.5v-620q0 -233 -103.5 -343t-283.5 -110h-2q-23 0 -31 6.5t-8 24.5z" />
<glyph unicode="*" horiz-adv-x="815" d="M311 1260v18q0 39 41 39h103q41 0 41 -39v-18q0 -82 -37 -170q-6 -16 -12.5 -32t-13.5 -27t-12 -20.5t-7 -15.5q55 68 82 92q57 53 157 87q35 10 52 -27l30 -98q12 -39 -26 -52q-72 -27 -146 -26q-86 2 -137 14q160 -55 231 -170q23 -33 -8 -55l-84 -60q-33 -20 -57 9 q-98 119 -98 282q-6 -131 -33 -186q-18 -45 -58 -107q-20 -29 -57 -6l-82 62q-39 20 -10 55q47 66 80 89.5t54.5 37.5t39.5 23.5t31.5 16.5t34.5 15q-176 -49 -287 -12l-19 6q-35 12 -22 51l31 99q12 39 51 24q123 -35 233 -155l9 -9q-4 6 -9.5 15.5t-13.5 20.5t-15.5 26.5 t-15.5 33t-15 38t-13 40.5q-13 42 -13 91z" />
<glyph unicode="+" horiz-adv-x="1157" d="M688 764h279q27 0 37 -11.5t10 -37.5v-115q0 -47 -47 -47h-279v-283q0 -49 -49 -49h-121q-49 0 -49 49v283h-279q-47 0 -47 47v115q0 27 10.5 38t36.5 11h279v280q0 49 49 50h121q49 0 49 -50v-280z" />
<glyph unicode="," horiz-adv-x="417" d="M340 295v-160q0 -55 -47 -127l-141 -207q-14 -20 -39 -20q-35 0 -35 41v471q0 41 41 41h182q39 0 39 -39z" />
<glyph unicode="-" horiz-adv-x="638" d="M514 549h-389q-43 0 -43 43v121q0 45 43 45h389q43 0 43 -45v-121q0 -43 -43 -43z" />
<glyph unicode="." horiz-adv-x="417" d="M340 295v-252q0 -43 -39 -43h-182q-41 0 -41 43v250q0 41 41 41h182q39 0 39 -39z" />
<glyph unicode="/" horiz-adv-x="837" d="M254 0h-158q-49 0 -33 43q66 168 234 614.5t233 616.5q18 43 56 43h157q49 0 33 -43l-467 -1231q-16 -43 -55 -43z" />
<glyph unicode="0" horiz-adv-x="1097" d="M489 225h121q66 0 92.5 28t26.5 93v625q0 66 -26.5 93.5t-92.5 27.5h-121q-66 0 -92 -28t-26 -93v-625q0 -66 26 -93.5t92 -27.5zM651 0h-205q-162 0 -249.5 86t-87.5 248v649q0 162 88 248t249 86h205q160 0 248 -87t88 -247v-649q0 -160 -88 -247t-248 -87z" />
<glyph unicode="1" horiz-adv-x="684" d="M47 950v168q0 35 31 53l186 117q47 29 80 29h164q43 0 43 -43v-1231q0 -25 -9.5 -34t-31.5 -9h-176q-43 0 -43 43v997l-201 -114q-43 -19 -43 24z" />
<glyph unicode="2" horiz-adv-x="1009" d="M96 43v195q0 117 101 198l376 320q92 76 93 164v61q0 63 -30 91t-97 28h-72q-66 0 -92.5 -28t-26.5 -91v-66q0 -45 -43 -45h-174q-43 0 -43 45v70q0 160 88 246t250 86h156q162 0 250 -86t88 -246v-82q0 -160 -123 -264l-385 -328q-25 -23 -25 -49v-33h490q43 0 43 -43 v-143q0 -43 -43 -43h-738q-43 0 -43 43z" />
<glyph unicode="3" horiz-adv-x="1042" d="M449 766h104q68 0 97.5 27.5t29.5 91.5v96q0 63 -29.5 91t-97.5 28h-98q-66 0 -92.5 -28t-26.5 -91v-51q0 -43 -43 -43h-174q-43 0 -43 43v55q0 160 88 246t250 86h182q162 0 250 -86t88 -246v-102q0 -172 -162 -224q162 -35 162 -223v-104q0 -160 -88 -246t-250 -86 h-182q-162 0 -250 86t-88 246v57q0 45 43 45h174q43 0 43 -45v-53q0 -66 26.5 -92.5t92.5 -26.5h98q68 0 97.5 27.5t29.5 91.5v100q0 63 -29.5 91t-97.5 28h-104q-43 0 -43 43v123q0 45 43 45z" />
<glyph unicode="4" horiz-adv-x="1107" d="M651 465v633l-332 -633h332zM854 0h-160q-43 0 -43 43v197h-508q-35 0 -55 20.5t-20 54.5v80q0 61 20 101l408 757q20 37 37.5 50.5t52.5 13.5h231q35 0 56.5 -20.5t21.5 -55.5v-776h147q41 0 41 -41v-137q0 -47 -41 -47h-147v-197q0 -25 -9 -34t-32 -9z" />
<glyph unicode="5" horiz-adv-x="1036" d="M559 670h-96q-53 0 -81 -43t-58 -43h-170q-43 0 -43 41v649q0 43 43 43h712q43 0 43 -43v-156q0 -43 -43 -43h-495v-301q35 102 172 103h86q317 0 317 -318v-225q0 -160 -88 -247t-248 -87h-180q-162 0 -250 86t-88 248v41q0 45 43 45h174q43 0 43 -45v-39q0 -63 28 -91 t91 -28h96q66 0 96.5 27.5t30.5 91.5v184q0 86 -28.5 118t-106.5 32z" />
<glyph unicode="6" horiz-adv-x="1075" d="M485 225h117q66 0 93.5 28t27.5 93v141q0 66 -27.5 93.5t-93.5 27.5h-235v-262q0 -66 26 -93.5t92 -27.5zM645 0h-201q-162 0 -250 86t-88 248v649q0 162 88.5 248t249.5 86h418q43 0 43 -43v-141q0 -41 -43 -41h-377q-63 0 -90.5 -28t-27.5 -93v-137h278q162 0 250 -86 t88 -248v-166q0 -162 -88 -248t-250 -86z" />
<glyph unicode="7" horiz-adv-x="882" d="M346 0h-192q-18 0 -25.5 11.5t2.5 31.5l432 1036h-481q-43 0 -43 43v152q0 43 43 43h717q43 0 43 -43v-172q0 -41 -29 -111l-397 -952q-17 -39 -70 -39z" />
<glyph unicode="8" horiz-adv-x="1110" d="M485 223h140q66 0 92 26.5t26 90.5v94q0 66 -26.5 96.5t-91.5 30.5h-140q-66 0 -92 -30.5t-26 -96.5v-94q0 -63 26 -90t92 -27zM485 764h140q66 0 92 30.5t26 96.5v86q0 63 -26.5 90t-91.5 27h-140q-66 0 -92 -27t-26 -90v-86q0 -66 26 -96.5t92 -30.5zM664 0h-218 q-164 0 -250.5 81t-86.5 238v95q0 188 135 248q-135 55 -135 249v88q0 158 87 238t250 80h218q162 0 248.5 -80t86.5 -238v-88q0 -96 -36.5 -163.5t-96.5 -85.5q133 -53 133 -250v-93q0 -158 -86.5 -238.5t-248.5 -80.5z" />
<glyph unicode="9" horiz-adv-x="1075" d="M469 694h238v277q0 66 -28 93.5t-93 27.5h-117q-66 0 -92.5 -28t-26.5 -93v-158q0 -63 26.5 -91t92.5 -28zM627 0h-432q-45 0 -45 43v141q0 41 45 41h391q66 0 92.5 28t26.5 93v123h-279q-162 0 -250 86t-88 246v182q0 162 88 248t250 86h201q162 0 250 -86t88 -248v-649 q0 -162 -88 -248t-250 -86z" />
<glyph unicode=":" horiz-adv-x="417" d="M340 1006v-252q0 -43 -39 -43h-182q-41 0 -41 47v246q0 41 41 40h182q39 1 39 -38zM340 295v-252q0 -43 -39 -43h-182q-41 0 -41 45v248q0 41 41 41h182q39 0 39 -39z" />
<glyph unicode=";" horiz-adv-x="417" d="M340 295v-160q0 -55 -47 -127l-141 -207q-14 -20 -39 -20q-35 0 -35 41v471q0 41 41 41h182q39 0 39 -39zM340 1006v-252q0 -43 -39 -43h-182q-41 0 -41 47v246q0 41 41 40h182q39 1 39 -38z" />
<glyph unicode="&#x3c;" horiz-adv-x="1153" d="M1012 1026v-135q0 -49 -39 -60l-617 -161l617 -162q39 -8 39 -59v-134q0 -45 -49 -30l-766 247q-55 18 -56 82v111q0 63 56 82l766 248q49 18 49 -29z" />
<glyph unicode="=" horiz-adv-x="1161" d="M193 965h776q27 0 37 -11.5t10 -38.5v-110q0 -27 -10.5 -38t-36.5 -11h-776q-27 0 -37.5 11t-10.5 38v110q0 27 10.5 38.5t37.5 11.5zM193 561h776q27 0 37 -11t10 -38v-111q0 -27 -10.5 -38t-36.5 -11h-776q-27 0 -37.5 11.5t-10.5 37.5v111q0 27 10.5 38t37.5 11z" />
<glyph unicode="&#x3e;" horiz-adv-x="1161" d="M145 891v135q0 47 50 29l766 -248q55 -18 55 -82v-111q0 -63 -55 -82l-766 -247q-49 -14 -50 30v134q0 51 39 59l617 162l-617 161q-39 11 -39 60z" />
<glyph unicode="?" horiz-adv-x="954" d="M592 295v-252q0 -43 -39 -43h-182q-41 0 -41 45v248q0 41 41 41h182q39 0 39 -39zM590 563v-53q0 -43 -43 -43h-162q-43 0 -43 43v55q0 68 22.5 110t75.5 85l115 94q66 51 66 113v12q0 63 -30 91t-97 28h-37q-63 0 -91 -27t-28 -92v-43q0 -45 -43 -45h-174q-43 0 -43 45 v47q0 160 88 246t250 86h121q162 0 249.5 -86t87.5 -246v-29q0 -100 -92 -180l-139 -112q-53 -50 -53 -99z" />
<glyph unicode="@" horiz-adv-x="1527" d="M1149 322q131 4 131 137v389q0 117 -78 178t-196 61h-388q-168 0 -261 -95t-93 -269v-330q0 -172 101.5 -268t271.5 -96h369q43 0 43 -43v-62q0 -43 -43 -43h-367q-229 0 -375.5 133t-146.5 351v374q0 209 137 352.5t348 143.5h420q178 0 293 -105.5t115 -267.5v-422 q0 -119 -78 -194.5t-197 -75.5h-119q-55 0 -95 26.5t-40 77.5v9h-8q-49 -113 -203 -113q-125 0 -203.5 81t-78.5 236v121q0 158 82.5 246t220.5 88h354q45 0 45 -43v-553q0 -24 39 -24zM901 518v205q0 25 -24 25h-123q-66 0 -92.5 -28t-26.5 -93v-146q0 -63 26.5 -91 t92.5 -28h6q141 0 141 156z" />
<glyph unicode="A" horiz-adv-x="1140" d="M270 0h-196q-37 0 -25 43l324 1231q14 43 61 43h273q51 0 61 -43l324 -1231q12 -43 -25 -43h-197q-23 0 -31 9t-12 34l-57 225h-399l-58 -225q-4 -25 -13.5 -34t-29.5 -9zM567 1069l-147 -592h303l-148 592h-8z" />
<glyph unicode="B" horiz-adv-x="1136" d="M416 217h229q68 0 97.5 27.5t29.5 91.5v119q0 63 -30.5 89.5t-100.5 26.5h-225q-23 0 -23 -22v-309q0 -23 23 -23zM416 782h209q66 0 96.5 28t30.5 91v80q0 63 -30 91t-95 28h-211q-23 0 -23 -23v-272q0 -23 23 -23zM133 43v1231q0 43 43 43h492q162 0 250 -86t88 -246 v-84q0 -174 -162 -225q82 -12 131 -66.5t49 -154.5v-123q0 -160 -88 -246t-248 -86h-512q-43 0 -43 43z" />
<glyph unicode="C" horiz-adv-x="1101" d="M674 0h-223q-162 0 -250 86t-88 248v649q0 162 88 248t250 86h223q160 0 249 -87t89 -247v-96q0 -45 -45 -45h-172q-43 0 -43 45v84q0 66 -28 93.5t-93 27.5h-139q-63 0 -91 -28t-28 -93v-625q0 -66 27.5 -93.5t91.5 -27.5h139q66 0 93.5 28t27.5 93v84q0 45 43 45h172 q45 0 45 -45v-96q0 -160 -89 -247t-249 -87z" />
<glyph unicode="D" horiz-adv-x="1132" d="M416 225h223q66 0 93.5 28t27.5 93v625q0 66 -27.5 93.5t-93.5 27.5h-223q-23 0 -23 -23v-821q0 -23 23 -23zM133 43v1231q0 43 43 43h506q160 0 249 -87t89 -247v-649q0 -160 -89 -247t-249 -87h-506q-43 0 -43 43z" />
<glyph unicode="E" horiz-adv-x="980" d="M846 0h-670q-43 0 -43 43v1231q0 43 43 43h670q41 0 41 -43v-139q0 -43 -41 -43h-428q-25 0 -25 -23v-266q0 -23 25 -23h350q43 0 43 -43v-139q0 -43 -43 -43h-350q-25 0 -25 -23v-284q0 -23 25 -23h428q41 0 41 -43v-139q0 -43 -41 -43z" />
<glyph unicode="F" horiz-adv-x="921" d="M350 0h-174q-43 0 -43 43v1231q0 43 43 43h653q41 0 41 -43v-139q0 -43 -41 -43h-411q-25 0 -25 -23v-317q0 -25 25 -25h350q43 0 43 -43v-137q0 -45 -43 -45h-350q-25 0 -25 -23v-436q0 -43 -43 -43z" />
<glyph unicode="G" horiz-adv-x="1116" d="M668 0h-217q-162 0 -250 86t-88 248v649q0 162 88 248t250 86h217q160 0 248 -87t88 -247v-61q0 -45 -43 -45h-175q-43 0 -43 45v49q0 66 -26.5 93.5t-91.5 27.5h-133q-63 0 -91 -28t-28 -93v-625q0 -66 27.5 -93.5t91.5 -27.5h133q66 0 92 28t26 93v129q0 23 -22 23 h-123q-43 0 -43 43v139q0 43 43 43h358q47 0 48 -47v-342q0 -160 -88 -247t-248 -87z" />
<glyph unicode="H" horiz-adv-x="1179" d="M350 0h-174q-43 0 -43 43v1231q0 43 43 43h174q43 0 43 -43v-481q0 -23 25 -23h346q23 0 22 23v481q0 43 43 43h175q43 0 43 -43v-1231q0 -43 -43 -43h-175q-43 0 -43 43v479q0 23 -22 23h-346q-25 0 -25 -23v-479q0 -43 -43 -43z" />
<glyph unicode="I" horiz-adv-x="546" d="M403 1274v-1231q0 -43 -43 -43h-174q-43 0 -43 43v1231q0 43 43 43h174q43 0 43 -43z" />
<glyph unicode="J" horiz-adv-x="1067" d="M729 1317h172q43 0 43 -41v-942q0 -160 -88 -247t-248 -87h-205q-162 0 -249.5 86t-87.5 248v192q0 43 43 43h174q43 0 43 -43v-180q0 -66 27.5 -93.5t90.5 -27.5h121q66 0 92.5 28t26.5 93v928q0 43 45 43z" />
<glyph unicode="K" horiz-adv-x="1142" d="M350 0h-174q-43 0 -43 43v1231q0 43 43 43h174q43 0 43 -43v-584h4q16 49 64 127l311 457q27 43 80 43h201q23 0 27.5 -13.5t-11.5 -33.5l-389 -539l434 -680q14 -25 5 -38t-38 -13h-149q-72 0 -96 43l-314 502l-129 -152v-350q0 -43 -43 -43z" />
<glyph unicode="L" horiz-adv-x="919" d="M850 0h-674q-43 0 -43 43v1231q0 43 43 43h174q43 0 43 -43v-1024q0 -23 25 -23h432q41 0 41 -45v-139q0 -43 -41 -43z" />
<glyph unicode="M" horiz-adv-x="1486" d="M1008 1317h303q43 0 43 -43v-1231q0 -43 -43 -43h-168q-43 0 -43 43v971h-8l-209 -686q-12 -41 -52 -41h-172q-39 0 -51 41l-213 688h-8v-973q0 -25 -8 -34t-35 -9h-168q-43 0 -43 43v1231q0 43 43 43h305q29 0 39 -29l217 -723h13l219 723q6 29 39 29z" />
<glyph unicode="N" horiz-adv-x="1198" d="M346 0h-170q-43 0 -43 43v1231q0 43 43 43h154q43 0 57 -29l414 -776h8v762q0 43 43 43h170q43 0 43 -43v-1231q0 -43 -43 -43h-150q-45 0 -65 41l-410 762h-8v-760q0 -43 -43 -43z" />
<glyph unicode="O" horiz-adv-x="1130" d="M492 225h145q66 0 93.5 28t27.5 93v625q0 66 -28 93.5t-93 27.5h-145q-66 0 -92.5 -28t-26.5 -93v-625q0 -66 26.5 -93.5t92.5 -27.5zM680 0h-229q-162 0 -250 86t-88 248v649q0 162 88 248t250 86h229q162 0 250 -86t88 -248v-649q0 -162 -88 -248t-250 -86z" />
<glyph unicode="P" horiz-adv-x="1085" d="M350 0h-174q-43 0 -43 43v1231q0 43 43 43h500q160 0 248 -87t88 -247v-197q0 -160 -88 -246.5t-248 -86.5h-258q-25 0 -25 -23v-387q0 -43 -43 -43zM416 680h217q66 0 92.5 27.5t26.5 91.5v172q0 66 -27 93.5t-92 27.5h-217q-23 0 -23 -23v-367q0 -22 23 -22z" />
<glyph unicode="Q" horiz-adv-x="1165" d="M510 225h145q66 0 93.5 28t27.5 93v625q0 66 -27.5 93.5t-93.5 27.5h-145q-66 0 -92.5 -28t-26.5 -93v-625q0 -66 26.5 -93.5t92.5 -27.5zM885 -272h-150q-55 0 -80 43l-133 229h-55q-162 0 -250 86t-88 248v649q0 162 88 248t250 86h229q162 0 250 -86t88 -248v-649 q0 -135 -64.5 -219t-183.5 -107l132 -227q10 -25 0 -39t-33 -14z" />
<glyph unicode="R" horiz-adv-x="1120" d="M350 0h-174q-43 0 -43 43v1231q0 43 43 43h488q160 0 250 -88t90 -248v-160q0 -231 -183 -307v-8l219 -457q18 -49 -34 -49h-166q-37 0 -53.5 8t-26.5 35l-205 442h-137q-25 0 -25 -22v-420q0 -43 -43 -43zM416 694h200q66 0 96.5 28t30.5 89v160q0 63 -30.5 92t-96.5 29 h-200q-23 0 -23 -23v-352q0 -23 23 -23z" />
<glyph unicode="S" horiz-adv-x="1103" d="M100 336v41q0 43 43 43h174q43 0 43 -43v-17q0 -78 31 -106.5t113 -28.5h96q80 0 111.5 31t31.5 115v24q0 59 -48 91t-119.5 38t-154.5 23.5t-154.5 45.5t-120 108.5t-48.5 207.5v72q0 160 90.5 248t249.5 88h205q162 0 252 -88t90 -248v-39q0 -43 -43 -43h-174 q-43 0 -43 43v12q0 80 -30.5 109t-112.5 29h-80q-84 0 -114 -32t-30 -124v-39q0 -96 168 -111q174 -14 310 -69q72 -31 120 -110t48 -201v-70q0 -160 -90.5 -248t-249.5 -88h-224q-160 0 -250 88t-90 248z" />
<glyph unicode="T" horiz-adv-x="907" d="M541 0h-172q-45 0 -45 43v1026q0 23 -23 23h-233q-43 0 -43 43v139q0 43 43 43h774q43 0 43 -43v-139q0 -43 -43 -43h-234q-25 0 -24 -23v-1026q0 -43 -43 -43z" />
<glyph unicode="U" horiz-adv-x="1146" d="M807 1317h172q45 0 45 -41v-942q0 -160 -89 -247t-249 -87h-225q-162 0 -250 86t-88 248v940q0 43 43 43h174q43 0 43 -43v-928q0 -66 27.5 -93.5t91.5 -27.5h141q66 0 93.5 28t27.5 93v928q0 43 43 43z" />
<glyph unicode="V" horiz-adv-x="1067" d="M670 0h-269q-43 0 -51 43l-317 1227q-14 47 41 47h192q41 0 49 -43l215 -1008h9l215 1008q8 43 49 43h192q51 0 41 -47l-317 -1227q-10 -43 -49 -43z" />
<glyph unicode="W" horiz-adv-x="1652" d="M588 0h-287q-45 0 -51 43l-219 1231q-6 43 43 43h213q47 0 49 -43l119 -1010h14l197 1016q6 37 43 37h229q39 0 45 -35l201 -1018h16l117 1008q2 45 49 45h213q49 0 43 -45l-221 -1229q-6 -43 -47 -43h-289q-43 0 -49 43l-185 961h-8l-186 -961q-8 -43 -49 -43z" />
<glyph unicode="X" horiz-adv-x="1105" d="M283 0h-203q-20 0 -28.5 13.5t-0.5 31.5l318 629l-308 598q-8 16 0.5 30.5t28.5 14.5h197q51 0 67 -43l195 -440h8l193 440q20 43 65 43h201q20 0 29.5 -15.5t1.5 -31.5l-312 -596l318 -627q10 -20 2 -33.5t-31 -13.5h-205q-43 0 -59 41l-203 442h-8l-205 -442 q-18 -41 -61 -41z" />
<glyph unicode="Y" horiz-adv-x="1058" d="M616 0h-174q-43 0 -43 43v438l-374 791q-8 18 1 31.5t27 13.5h217q33 0 49 -43l205 -498h15l200 498q14 43 49 43h218q20 0 29 -12.5t-1 -32.5l-375 -791v-438q0 -43 -43 -43z" />
<glyph unicode="Z" horiz-adv-x="1067" d="M98 43v123q0 68 27 100l543 801v8h-490q-43 0 -43 43v156q0 43 43 43h727q41 0 41 -43v-176q0 -61 -31 -107l-509 -741v-8h520q41 0 41 -39v-156q0 -47 -41 -47h-785q-43 0 -43 43z" />
<glyph unicode="[" horiz-adv-x="661" d="M494 -201h-295q-41 0 -41 45v1430q0 43 41 43h295q41 0 41 -43v-88q0 -43 -41 -43h-103q-25 0 -24 -25v-1120q0 -25 24 -25h103q41 0 41 -43v-88q0 -43 -41 -43z" />
<glyph unicode="\" horiz-adv-x="837" d="M94 1317h160q37 0 55 -43q66 -170 234 -616.5t233 -614.5q16 -43 -33 -43h-157q-39 0 -56 43l-467 1231q-16 43 31 43z" />
<glyph unicode="]" horiz-adv-x="661" d="M123 -158v88q0 43 43 43h102q23 0 23 25v1120q0 25 -23 25h-102q-43 0 -43 43v88q0 43 43 43h293q41 0 41 -43v-1430q0 -45 -41 -45h-293q-43 0 -43 43z" />
<glyph unicode="^" horiz-adv-x="1046" d="M283 741h-158q-53 0 -31 43l246 469q18 37 36.5 50.5t53.5 13.5h184q35 0 53.5 -13.5t37.5 -50.5l245 -469q23 -43 -30 -43h-158q-35 0 -55 41l-185 367l-184 -367q-20 -41 -55 -41z" />
<glyph unicode="_" horiz-adv-x="761" d="M719 -229h-676q-43 0 -43 45v53q0 43 43 43h676q43 0 43 -43v-53q0 -45 -43 -45z" />
<glyph unicode="`" horiz-adv-x="610" d="M473 1176h-133q-33 0 -55 26l-166 197q-14 16 -8 28.5t28 12.5h203q39 0 61 -39l91 -182q22 -43 -21 -43z" />
<glyph unicode="a" d="M479 0h-49q-162 0 -250 86t-88 248v377q0 162 88 247.5t250 85.5h473q45 0 45 -43v-958q0 -43 -45 -43h-172q-43 0 -43 43v68h-8q-23 -55 -80.5 -83t-120.5 -28zM688 381v416q0 23 -24 22h-193q-66 0 -92.5 -27.5t-26.5 -93.5v-352q0 -66 27 -93.5t92 -27.5h76 q141 0 141 156z" />
<glyph unicode="b" horiz-adv-x="1077" d="M395 225h209q66 0 93.5 28t27.5 93v356q0 66 -27.5 93.5t-93.5 27.5h-90q-141 0 -141 -155v-420q-1 -23 22 -23zM113 43v1354q0 43 43 43h174q43 0 43 -43v-461h8q23 55 80 84t121 29h65q162 0 250 -86t88 -248v-381q0 -162 -88 -248t-250 -86h-491q-43 0 -43 43z" />
<glyph unicode="c" horiz-adv-x="841" d="M778 182v-141q0 -23 -9 -32t-34 -9h-305q-162 0 -250 86t-88 248v377q0 162 88 247.5t250 85.5h305q43 0 43 -43v-141q0 -23 -9 -32t-34 -9h-264q-63 0 -91 -27.5t-28 -93.5v-352q0 -66 28 -93.5t91 -27.5h264q43 0 43 -43z" />
<glyph unicode="d" horiz-adv-x="1077" d="M496 0h-84q-158 0 -239 86t-81 248v377q0 162 81 247.5t239 85.5h84q63 0 120.5 -27.5t79.5 -82.5h9v463q0 43 43 43h174q43 0 43 -43v-1354q0 -43 -43 -43h-174q-43 0 -43 43v68h-9q-23 -55 -80 -83t-120 -28zM705 381v283q0 156 -142 155h-92q-66 0 -92.5 -27.5 t-26.5 -93.5v-352q0 -66 27 -93.5t92 -27.5h92q142 0 142 156z" />
<glyph unicode="e" horiz-adv-x="1011" d="M883 0h-453q-162 0 -250 86t-88 248v377q0 162 88 247.5t250 85.5h162q162 0 250 -86t88 -247v-260q0 -43 -43 -43h-514q-25 0 -25 -23v-45q0 -63 27.5 -91t93.5 -28h414q43 0 43 -45v-135q0 -23 -9 -32t-34 -9zM373 582h278q23 0 23 22v98q0 66 -26.5 92.5t-92.5 26.5 h-86q-66 0 -92.5 -26.5t-26.5 -92.5v-98q0 -22 23 -22z" />
<glyph unicode="f" horiz-adv-x="724" d="M492 1044h163q25 0 34 -9t9 -31v-142q0 -43 -43 -43h-163q-23 0 -23 -22v-754q0 -43 -45 -43h-172q-43 0 -43 43v754q0 23 -25 22h-94q-43 0 -43 43v142q0 25 9.5 32.5t33.5 7.5h94q25 0 25 23v39q0 162 85 248t247 86h116q25 0 33 -9.5t8 -31.5v-142q0 -43 -41 -43h-75 q-66 0 -89.5 -27.5t-23.5 -92.5v-27q0 -23 23 -23z" />
<glyph unicode="g" horiz-adv-x="1062" d="M481 47h-67q-158 0 -239 86t-81 248v330q0 162 88 247.5t250 85.5h473q45 0 45 -43v-1009q0 -160 -89 -246t-249 -86h-393q-25 0 -34 9t-9 32v141q0 43 43 43h350q66 0 93.5 28t27.5 91v156h-8q-23 -55 -80.5 -84t-120.5 -29zM690 428v369q0 23 -24 22h-193 q-66 0 -92.5 -27.5t-26.5 -93.5v-305q0 -66 27 -92.5t92 -26.5h76q141 0 141 154z" />
<glyph unicode="h" horiz-adv-x="1071" d="M330 0h-174q-43 0 -43 43v1354q0 43 43 43h174q43 0 43 -43v-463h8q45 111 201 110h65q322 0 322 -333v-668q0 -43 -45 -43h-172q-43 0 -43 43v655q0 66 -28 93.5t-93 27.5h-74q-141 0 -141 -155v-621q0 -43 -43 -43z" />
<glyph unicode="i" horiz-adv-x="505" d="M123 1221v178q0 41 41 41h178q41 0 41 -39v-180q0 -41 -41 -41h-178q-41 0 -41 41zM123 43v958q0 43 41 43h176q43 0 43 -43v-958q0 -27 -9 -35t-32 -8h-176q-43 0 -43 43z" />
<glyph unicode="j" horiz-adv-x="505" d="M123 1221v178q0 41 41 41h178q41 0 41 -39v-180q0 -41 -41 -41h-178q-41 0 -41 41zM43 -340h-137q-43 0 -43 43v139q0 43 43 43h57q92 0 126 33t34 125v958q0 43 43 43h174q43 0 43 -43v-1005q0 -160 -90 -248t-250 -88z" />
<glyph unicode="k" horiz-adv-x="966" d="M711 1044h198q25 0 33 -14t-6 -37l-272 -448v-8l284 -486q12 -20 2 -35.5t-37 -15.5h-176q-35 0 -50 8t-32 35l-260 457q-18 33 0 67l246 437q23 40 70 40zM330 0h-174q-43 0 -43 43v1354q0 43 43 43h174q43 0 43 -43v-1354q0 -43 -43 -43z" />
<glyph unicode="l" horiz-adv-x="505" d="M340 0h-174q-43 0 -43 43v1354q0 43 43 43h174q43 0 43 -43v-1354q0 -43 -43 -43z" />
<glyph unicode="m" horiz-adv-x="1634" d="M330 0h-174q-43 0 -43 43v958q0 43 43 43h174q43 0 43 -43v-67h8q25 49 83 79.5t134 30.5h57q178 0 256 -131q70 131 240 131h59q158 0 239 -86t81 -247v-668q0 -43 -43 -43h-174q-43 0 -43 43v655q0 66 -26.5 93.5t-92.5 27.5h-51q-141 0 -142 -157v-619q0 -43 -45 -43 h-172q-43 0 -43 43v655q0 66 -27.5 93.5t-92.5 27.5h-64q-141 0 -141 -155v-621q0 -43 -43 -43z" />
<glyph unicode="n" horiz-adv-x="1071" d="M330 0h-174q-43 0 -43 43v958q0 43 43 43h174q43 0 43 -43v-67h8q45 111 201 110h65q322 0 322 -333v-668q0 -43 -45 -43h-172q-43 0 -43 43v655q0 66 -28 93.5t-93 27.5h-74q-141 0 -141 -155v-621q0 -43 -43 -43z" />
<glyph unicode="o" horiz-adv-x="1042" d="M612 0h-182q-162 0 -250 86t-88 248v377q0 162 88 247.5t250 85.5h182q160 0 249 -87t89 -246v-377q0 -160 -89 -247t-249 -87zM469 223h104q66 0 93.5 26.5t27.5 92.5v360q0 66 -27.5 92.5t-93.5 26.5h-104q-66 0 -92.5 -26.5t-26.5 -92.5v-360q0 -66 26.5 -92.5 t92.5 -26.5z" />
<glyph unicode="p" horiz-adv-x="1077" d="M330 -279h-174q-43 0 -43 41v1239q0 43 43 43h174q43 0 43 -43v-67h8q23 55 80 82.5t121 27.5h84q158 0 238.5 -86t80.5 -247v-377q0 -162 -81 -248t-238 -86h-84q-63 0 -121 27.5t-80 83.5h-8v-349q0 -41 -43 -41zM514 225h90q66 0 93.5 28t27.5 93v352q0 66 -27.5 93.5 t-93.5 27.5h-90q-141 0 -141 -155v-283q0 -156 141 -156z" />
<glyph unicode="q" d="M688 383v414q0 23 -24 22h-193q-66 0 -92.5 -27.5t-26.5 -93.5v-352q0 -66 27 -93.5t92 -27.5h74q143 0 143 158zM477 0h-47q-162 0 -250 86t-88 248v377q0 162 88 247.5t250 85.5h473q45 0 45 -43v-1239q0 -41 -45 -41h-172q-43 0 -43 41v351h-8q-49 -113 -203 -113z " />
<glyph unicode="r" horiz-adv-x="714" d="M330 0h-174q-43 0 -43 43v958q0 43 43 43h174q43 0 43 -43v-69h8q23 55 80 83.5t121 28.5h73q41 0 41 -43v-141q0 -25 -9 -34t-32 -7h-141q-141 0 -141 -160v-616q0 -43 -43 -43z" />
<glyph unicode="s" horiz-adv-x="897" d="M508 0h-389q-41 0 -41 43v131q0 23 8 32t33 9h342q100 0 100 61v11q0 49 -84 94l-203 113q-104 53 -153 114.5t-49 157.5q0 143 75.5 210.5t237.5 67.5h342q41 0 41 -43v-133q0 -23 -8 -32t-33 -9h-285q-100 0 -100 -51v-10q0 -45 88 -92l207 -123q106 -57 149 -117.5 t43 -159.5q1 -274 -321 -274z" />
<glyph unicode="t" horiz-adv-x="722" d="M135 819h-82q-25 0 -34 8.5t-9 32.5v141q0 43 43 43h82q23 0 23 23v195q0 43 45 43h172q43 0 43 -43v-195q0 -23 24 -23h160q43 0 43 -43v-141q0 -23 -9 -32t-34 -9h-160q-25 0 -24 -22v-453q0 -63 28.5 -91t94.5 -28h82q43 0 43 -43v-141q0 -23 -9.5 -32t-33.5 -9h-125 q-162 0 -251 86t-89 246v465q0 22 -23 22z" />
<glyph unicode="u" horiz-adv-x="1071" d="M489 0h-67q-158 0 -239 86t-81 248v667q0 43 43 43h174q43 0 43 -43v-655q0 -66 28 -93.5t91 -27.5h76q141 0 141 156v620q0 43 43 43h172q45 0 45 -43v-958q0 -43 -45 -43h-172q-43 0 -43 43v68h-8q-23 -55 -80.5 -83t-120.5 -28z" />
<glyph unicode="v" horiz-adv-x="958" d="M68 1044h180q41 0 49 -43l176 -770h14l172 770q8 43 52 43h180q43 0 31 -43l-258 -956q-8 -45 -56 -45h-260q-43 0 -55 45l-256 956q-12 43 31 43z" />
<glyph unicode="w" horiz-adv-x="1425" d="M530 0h-233q-39 0 -49 43l-205 958q-8 43 31 43h196q45 0 49 -43l93 -700h16l145 700q6 43 48 43h180q43 0 51 -43l141 -700h17l94 700q6 43 49 43h197q41 0 30 -43l-204 -958q-8 -43 -50 -43h-233q-41 0 -49 43l-125 692h-17l-122 -692q-7 -43 -50 -43z" />
<glyph unicode="x" horiz-adv-x="946" d="M281 0h-207q-53 0 -29 43l258 489l-258 469q-20 43 25 43h209q49 0 63 -43l129 -311h8l113 311q14 43 63 43h205q53 0 27 -43l-246 -469l264 -489q10 -18 3 -30.5t-27 -12.5h-211q-43 0 -62 43l-129 313h-8l-129 -313q-14 -43 -61 -43z" />
<glyph unicode="y" horiz-adv-x="964" d="M283 -346h-131q-41 0 -41 45v137q0 45 41 45h43q129 0 175 36t70 138h-108q-39 0 -51 43l-240 903q-12 43 31 43h182q41 0 51 -43l176 -755h8l175 755q8 43 51 43h172q51 0 41 -45l-250 -999q-45 -170 -139 -258t-256 -88z" />
<glyph unicode="z" horiz-adv-x="919" d="M63 43v68q0 70 39 118l435 584v8h-412q-43 0 -43 45v135q0 43 43 43h668q43 0 43 -43v-122q0 -66 -33 -107l-402 -541v-8h414q43 0 43 -45v-135q0 -43 -43 -43h-709q-43 0 -43 43z" />
<glyph unicode="{" horiz-adv-x="645" d="M481 1317h17q41 0 41 -43v-96q0 -43 -41 -43h-6q-63 0 -87 -28t-24 -93v-258q0 -84 -28.5 -132.5t-98.5 -70.5q127 -35 127 -201v-258q0 -66 23.5 -93.5t87.5 -27.5h6q41 0 41 -43v-96q0 -43 -41 -43h-17q-305 0 -305 334v207q0 109 -86 108q-43 0 -43 45v138q0 45 43 45 q86 0 86 108v207q0 334 305 334z" />
<glyph unicode="|" horiz-adv-x="473" d="M326 1274v-1231q0 -43 -45 -43h-88q-43 0 -43 43v1231q0 43 43 43h88q45 0 45 -43z" />
<glyph unicode="}" horiz-adv-x="645" d="M412 983v-207q0 -59 20.5 -83.5t65.5 -24.5q41 0 41 -45v-138q0 -45 -41 -45q-45 0 -65.5 -24.5t-20.5 -83.5v-207q0 -334 -308 -334h-14q-43 0 -43 43v96q0 43 43 43h6q61 0 85 28t24 93v258q0 166 127 201q-127 41 -127 203v258q0 66 -23.5 93.5t-85.5 27.5h-6 q-43 0 -43 43v96q0 43 43 43h14q308 0 308 -334z" />
<glyph unicode="~" horiz-adv-x="1157" d="M569.5 560q-139.5 32 -201 32t-124 -31t-72.5 -31q-29 0 -29 29v119q0 31 12.5 47t66.5 38.5t134 22.5t216.5 -32.5t207 -32.5t133 30.5t72.5 30.5q29 0 29 -26v-121q0 -53 -58 -76q-68 -31 -157.5 -31t-229 32z" />
<glyph unicode="&#xa1;" horiz-adv-x="487" d="M336 983h-180q-41 0 -41 41v248q0 45 41 45h180q41 0 41 -43v-252q0 -39 -41 -39zM184 850h117q39 0 47 -43q0 -2 4 -33t8.5 -80t8.5 -104q14 -147 14 -230v-317q0 -43 -43 -43h-195q-43 0 -43 43v317q0 184 17.5 314.5t17.5 132.5q8 43 47 43z" />
<glyph unicode="&#xa2;" horiz-adv-x="880" d="M588 -193h-129q-41 0 -41 41v152h-15q-147 0 -229 89t-82 245v377q0 156 82 244.5t229 88.5h15v158q0 41 41 41h129q39 0 39 -39v-160h96q27 0 52.5 -11t25.5 -32v-141q0 -41 -45 -41h-285q-63 0 -91 -27.5t-28 -93.5v-352q0 -66 28 -93.5t91 -27.5h285q45 0 45 -41v-141 q0 -43 -45 -43h-129v-154q0 -39 -39 -39z" />
<glyph unicode="&#xa3;" horiz-adv-x="1140" d="M348 211h623q41 0 41 -45v-123q0 -43 -41 -43h-881q-43 0 -43 43v123q0 45 43 45h14q82 0 82 131v168h-96q-43 0 -43 45v123q0 43 43 43h96v264q0 160 88 246t250 86h133q162 0 250 -86t88 -246v-51q0 -43 -45 -43h-172q-43 0 -43 43v47q0 66 -27.5 92.5t-93.5 26.5h-47 q-68 0 -97.5 -28t-29.5 -91v-260h226q43 0 43 -43v-123q0 -45 -43 -45h-226v-133q0 -68 -26.5 -113t-65.5 -45v-8z" />
<glyph unicode="&#xa5;" horiz-adv-x="1112" d="M643 0h-174q-43 0 -43 43v270h-285q-47 0 -47 47v78q0 49 47 49h275v15l-56 119h-219q-47 0 -47 47v77q0 49 47 50h138l-230 479q-18 43 27 43h221q18 0 27 -8q6 -8 227 -559h8q225 553 231.5 560t26.5 7h219q45 0 27 -43l-227 -479h133q27 0 37 -11.5t10 -38.5v-77 q0 -47 -47 -47h-217l-56 -119v-15h273q27 0 37 -11t10 -38v-78q0 -47 -47 -47h-283v-270q0 -43 -43 -43z" />
<glyph unicode="&#xa6;" horiz-adv-x="471" d="M324 1274v-471q0 -43 -43 -43h-91q-43 0 -43 43v471q0 43 43 43h91q43 0 43 -43zM324 514v-471q0 -43 -43 -43h-91q-43 0 -43 43v471q0 43 43 43h91q43 0 43 -43z" />
<glyph unicode="&#xa7;" horiz-adv-x="1003" d="M639 616q0 72 -90 99q-113 29 -187 55v-65q0 -78 95 -105q143 -35 182 -51v67zM543 0h-342q-43 0 -43 43v141q0 41 43 41h321q96 0 96 68q0 33 -26.5 51t-97.5 35l-177 39q-195 43 -194 268v354q0 131 85 204t249 73h336q41 0 41 -43v-141q0 -23 -9.5 -32t-31.5 -9h-328 q-82 0 -82 -64q0 -31 26.5 -51.5t100.5 -36.5l176 -39q195 -47 195 -266v-354q0 -133 -86 -207t-252 -74z" />
<glyph unicode="&#xa8;" horiz-adv-x="851" d="M109 1219v180q0 41 41 41h161q41 0 41 -39v-182q0 -43 -41 -43h-161q-41 0 -41 43zM498 1219v180q0 41 41 41h161q41 0 41 -39v-182q0 -43 -41 -43h-161q-41 0 -41 43z" />
<glyph unicode="&#xa9;" horiz-adv-x="1439" d="M1004 825v-57q0 -27 -27 -27h-109q-29 0 -28 27v29q0 70 -17.5 86t-91.5 16h-10q-72 0 -89.5 -16.5t-17.5 -85.5v-273q0 -72 17.5 -88t89.5 -16h10q74 0 91.5 16.5t17.5 87.5v29q0 29 28 29h109q27 0 27 -29v-59q0 -104 -58.5 -161t-165.5 -57h-106q-106 0 -165.5 56.5 t-59.5 161.5v331q0 106 59 161.5t166 55.5h106q106 0 165 -55.5t59 -161.5zM438 152h563q76 0 111 30.5t35 104.5v743q0 74 -35 104.5t-111 30.5h-563q-76 0 -110.5 -30.5t-34.5 -104.5v-743q0 -74 34.5 -104.5t110.5 -30.5zM387 1317h668q121 0 189.5 -67.5t68.5 -186.5 v-809q0 -119 -68.5 -186.5t-189.5 -67.5h-668q-121 0 -189.5 67.5t-68.5 186.5v809q0 119 68.5 186.5t189.5 67.5z" />
<glyph unicode="&#xab;" horiz-adv-x="929" d="M838 307v-112q0 -23 -12.5 -29t-30.5 8l-306 236q-25 18 -32.5 31.5t-7.5 43.5v84q0 43 40 72l306 236q18 14 30.5 8t12.5 -29v-113q0 -35 -41 -59l-209 -158l209 -157q41 -27 41 -62zM481 307v-112q0 -23 -12 -29t-31 8l-305 236q-25 18 -33 31.5t-8 43.5v84q0 43 41 72 l305 236q18 14 30.5 8t12.5 -29v-113q0 -35 -41 -59l-209 -158l209 -157q41 -27 41 -62z" />
<glyph unicode="&#xad;" horiz-adv-x="638" d="M514 549h-389q-43 0 -43 43v121q0 45 43 45h389q43 0 43 -45v-121q0 -43 -43 -43z" />
<glyph unicode="&#xae;" horiz-adv-x="972" d="M510 1235h-61v-100h61q23 0 22 22v57q1 21 -22 21zM356 956v324q0 23 8.5 31t32.5 8h121q109 0 109 -94v-78q0 -61 -43 -82l45 -94q25 -51 -29 -51h-20q-27 0 -37 26l-51 115h-43v-105q0 -23 -7.5 -29.5t-29.5 -6.5h-15q-25 0 -33 6.5t-8 29.5zM352 852h269 q63 0 90.5 26.5t27.5 92.5v297q0 63 -27.5 90.5t-90.5 27.5h-269q-66 0 -92.5 -27.5t-26.5 -90.5v-297q0 -66 26.5 -92.5t92.5 -26.5zM645 754h-317q-92 0 -146.5 52t-54.5 140v346q0 88 54.5 140.5t146.5 52.5h317q94 0 147.5 -51.5t53.5 -141.5v-346q0 -90 -53.5 -141 t-147.5 -51z" />
<glyph unicode="&#xaf;" horiz-adv-x="706" d="M555 1219h-403q-43 0 -43 45v90q0 43 43 43h403q43 0 43 -43v-90q0 -45 -43 -45z" />
<glyph unicode="&#xb0;" horiz-adv-x="776" d="M451 1044h-127q-100 0 -101 101v198q0 96 101 97h127q47 0 74.5 -25.5t27.5 -71.5v-198q0 -47 -27.5 -74t-74.5 -27zM401 1141q27 0 36 8t9 35v114q0 29 -9 37t-36 8h-28q-29 0 -37 -8t-8 -37v-114q0 -27 9 -35t36 -8h28z" />
<glyph unicode="&#xb1;" horiz-adv-x="1157" d="M688 905h279q27 0 37 -11t10 -38v-108q0 -27 -10.5 -38.5t-36.5 -11.5h-279v-141q0 -49 -49 -49h-121q-49 0 -49 49v141h-279q-27 0 -37 11.5t-10 38.5v108q0 27 10.5 38t36.5 11h279v139q0 49 49 50h121q49 0 49 -50v-139zM190 428h777q47 0 47 -47v-111q0 -49 -47 -49 h-777q-47 0 -47 49v111q0 47 47 47z" />
<glyph unicode="&#xb4;" horiz-adv-x="610" d="M270 1440h203q20 0 26.5 -12.5t-5.5 -28.5l-168 -197q-23 -27 -58 -26h-129q-43 0 -22 43l92 182q20 39 61 39z" />
<glyph unicode="&#xb6;" horiz-adv-x="1118" d="M526 0h-123q-43 0 -43 43v608q-106 0 -182 64.5t-76 191.5v152q0 135 87 196.5t212 61.5h523q43 0 43 -41v-1233q0 -43 -43 -43h-123q-43 0 -43 43v1059q0 23 -25 22h-139q-25 0 -25 -22v-1059q0 -43 -43 -43z" />
<glyph unicode="&#xb7;" horiz-adv-x="423" d="M342 778v-252q0 -43 -39 -43h-182q-41 0 -41 43v250q0 41 41 41h182q39 0 39 -39z" />
<glyph unicode="&#xb8;" horiz-adv-x="544" d="M283 -76q152 0 151 -153v-37q0 -143 -192 -144h-92q-23 0 -30 7.5t-7 29.5v41q0 23 7 31t30 8h67q55 0 73.5 9.5t18.5 37.5v4q0 31 -18.5 40t-73.5 9h-51q-37 0 -51.5 40t12.5 73l104 121h160l-108 -109v-8z" />
<glyph unicode="&#xbb;" horiz-adv-x="929" d="M449 743v113q0 23 11 29t29 -8l308 -236q41 -29 41 -72v-84q0 -31 -8.5 -44t-32.5 -31l-308 -236q-18 -14 -29 -8t-11 29v112q0 35 38 62l211 157l-211 158q-38 24 -38 59zM92 743v113q0 23 11.5 29t29.5 -8l307 -236q41 -29 41 -72v-84q0 -31 -8 -44t-33 -31l-307 -236 q-18 -14 -29.5 -8t-11.5 29v112q0 35 39 62l211 157l-211 158q-39 24 -39 59z" />
<glyph unicode="&#xbf;" horiz-adv-x="954" d="M362 1020v252q0 43 41 43h183q39 0 39 -45v-248q0 -41 -39 -41h-183q-41 0 -41 39zM362 752v53q0 43 44 43h161q43 0 43 -43v-55q0 -66 -22.5 -109t-75.5 -86l-115 -94q-66 -49 -65 -113v-12q0 -63 29.5 -91t95.5 -28h37q66 0 93 26.5t27 92.5v43q0 45 43 45h174 q43 0 43 -45v-47q0 -160 -88 -246t-249 -86h-121q-162 0 -250 86t-88 246v28q0 100 92 181l139 112q53 52 53 99z" />
<glyph unicode="&#xc0;" horiz-adv-x="1138" d="M633 1448h-135q-33 0 -54 27l-165 196q-14 16 -8.5 28.5t28.5 12.5h201q41 0 61 -39l92 -182q21 -43 -20 -43zM270 0h-196q-37 0 -25 43l324 1231q14 43 61 43h273q51 0 61 -43l324 -1231q12 -43 -25 -43h-197q-23 0 -31 9t-12 34l-57 225h-399l-58 -225 q-4 -25 -13.5 -34t-29.5 -9zM567 1069l-147 -592h303l-148 592h-8z" />
<glyph unicode="&#xc1;" horiz-adv-x="1138" d="M629 1712h202q23 0 29 -12t-8 -29l-166 -196q-23 -27 -53 -27h-135q-41 0 -21 43l92 182q21 39 60 39zM270 0h-196q-37 0 -25 43l324 1231q14 43 61 43h273q51 0 61 -43l324 -1231q12 -43 -25 -43h-197q-23 0 -31 9t-12 34l-57 225h-399l-58 -225q-4 -25 -13.5 -34 t-29.5 -9zM567 1069l-147 -592h303l-148 592h-8z" />
<glyph unicode="&#xc2;" horiz-adv-x="1138" d="M797 1448h-123q-27 0 -37 25l-66 135l-67 -135q-8 -25 -35 -25h-121q-31 0 -16 27l127 215q16 23 45 22h133q29 0 45 -22l129 -215q15 -27 -14 -27zM270 0h-196q-37 0 -25 43l324 1231q14 43 61 43h273q51 0 61 -43l324 -1231q12 -43 -25 -43h-197q-23 0 -31 9t-12 34 l-57 225h-399l-58 -225q-4 -25 -13.5 -34t-29.5 -9zM567 1069l-147 -592h303l-148 592h-8z" />
<glyph unicode="&#xc3;" horiz-adv-x="1138" d="M473 1438q-147 0 -147 155v80q0 14 4 18.5t18 4.5h80q23 0 23 -23v-24q0 -45 6 -59.5t20.5 -14.5t25.5 11t54 65.5t113 54.5q147 0 147 -158v-75q0 -27 -20 -27h-82q-20 0 -21 27v20q0 45 -7 59.5t-23 14.5q-25 0 -62 -56q-53 -73 -129 -73zM270 0h-196q-37 0 -25 43 l324 1231q14 43 61 43h273q51 0 61 -43l324 -1231q12 -43 -25 -43h-197q-23 0 -31 9t-12 34l-57 225h-399l-58 -225q-4 -25 -13.5 -34t-29.5 -9zM567 1069l-147 -592h303l-148 592h-8z" />
<glyph unicode="&#xc4;" horiz-adv-x="1138" d="M254 1491v180q0 41 39 41h164q39 0 39 -39v-182q0 -43 -39 -43h-164q-39 0 -39 43zM643 1491v180q0 41 39 41h164q39 0 39 -39v-182q0 -43 -39 -43h-164q-39 0 -39 43zM270 0h-196q-37 0 -25 43l324 1231q14 43 61 43h273q51 0 61 -43l324 -1231q12 -43 -25 -43h-197 q-23 0 -31 9t-12 34l-57 225h-399l-58 -225q-4 -25 -13.5 -34t-29.5 -9zM567 1069l-147 -592h303l-148 592h-8z" />
<glyph unicode="&#xc5;" horiz-adv-x="1138" d="M627 1442h-117q-111 0 -111 110v131q0 106 111 107h117q51 0 81.5 -28.5t30.5 -78.5v-131q0 -53 -30.5 -81.5t-81.5 -28.5zM551 1536h33q27 0 37 11.5t10 39.5v53q0 31 -9.5 42.5t-35.5 11.5h-33q-27 0 -38 -11.5t-11 -42.5v-53q0 -29 10 -40t37 -11zM270 0h-196 q-37 0 -25 43l324 1231q14 43 61 43h273q51 0 61 -43l324 -1231q12 -43 -25 -43h-197q-23 0 -31 9t-12 34l-57 225h-399l-58 -225q-4 -25 -13.5 -34t-29.5 -9zM567 1069l-147 -592h303l-148 592h-8z" />
<glyph unicode="&#xc6;" horiz-adv-x="1599" d="M229 0h-188q-45 0 -27 45l568 1229q20 43 67 43h817q41 0 41 -43v-139q0 -43 -41 -43h-428q-25 0 -24 -23v-266q0 -23 24 -23h351q43 0 43 -43v-139q0 -43 -43 -43h-351q-25 0 -24 -23v-284q0 -23 24 -23h428q41 0 41 -43v-139q0 -43 -41 -43h-669q-43 0 -43 43v227h-365 l-104 -227q-17 -43 -56 -43zM754 498v571h-9l-260 -571h269z" />
<glyph unicode="&#xc7;" horiz-adv-x="1101" d="M967 842h-172q-43 0 -43 45v84q0 66 -28 93.5t-93 27.5h-139q-63 0 -91 -28t-28 -93v-625q0 -66 27.5 -93.5t91.5 -27.5h139q66 0 93.5 28t27.5 93v84q0 45 43 45h172q45 0 45 -45v-96q0 -160 -89 -247t-249 -87h-2l-82 -84v-8q152 0 151 -154v-37q0 -74 -52 -109.5 t-140 -35.5h-94q-23 0 -30 8t-7 31v39q0 25 7 33t30 8h69q55 0 73.5 9t18.5 36v6q0 31 -18 40t-74 9h-53q-37 0 -51 40t14 73l82 96h-65q-162 0 -250 86t-88 248v649q0 162 88 248t250 86h223q160 0 249 -87t89 -247v-96q0 -45 -45 -45z" />
<glyph unicode="&#xc8;" horiz-adv-x="980" d="M573 1448h-135q-33 0 -53 27l-166 196q-14 16 -8 28.5t29 12.5h200q43 0 62 -39l92 -182q20 -43 -21 -43zM846 0h-670q-43 0 -43 43v1231q0 43 43 43h670q41 0 41 -43v-139q0 -43 -41 -43h-428q-25 0 -25 -23v-266q0 -23 25 -23h350q43 0 43 -43v-139q0 -43 -43 -43h-350 q-25 0 -25 -23v-284q0 -23 25 -23h428q41 0 41 -43v-139q0 -43 -41 -43z" />
<glyph unicode="&#xc9;" horiz-adv-x="980" d="M549 1712h203q23 0 28.5 -12t-8.5 -29l-166 -196q-23 -27 -55 -27h-133q-41 0 -21 43l90 182q23 39 62 39zM846 0h-670q-43 0 -43 43v1231q0 43 43 43h670q41 0 41 -43v-139q0 -43 -41 -43h-428q-25 0 -25 -23v-266q0 -23 25 -23h350q43 0 43 -43v-139q0 -43 -43 -43 h-350q-25 0 -25 -23v-284q0 -23 25 -23h428q41 0 41 -43v-139q0 -43 -41 -43z" />
<glyph unicode="&#xca;" horiz-adv-x="980" d="M733 1448h-123q-27 0 -35 25l-67 135l-66 -135q-10 -25 -36 -25h-121q-31 0 -17 27l129 215q16 23 45 22h133q29 0 46 -22l127 -215q14 -27 -15 -27zM846 0h-670q-43 0 -43 43v1231q0 43 43 43h670q41 0 41 -43v-139q0 -43 -41 -43h-428q-25 0 -25 -23v-266q0 -23 25 -23 h350q43 0 43 -43v-139q0 -43 -43 -43h-350q-25 0 -25 -23v-284q0 -23 25 -23h428q41 0 41 -43v-139q0 -43 -41 -43z" />
<glyph unicode="&#xcb;" horiz-adv-x="980" d="M195 1491v180q0 41 38 41h164q41 0 41 -39v-182q0 -43 -41 -43h-164q-38 0 -38 43zM584 1491v180q0 41 39 41h163q41 0 41 -39v-182q0 -43 -41 -43h-163q-39 0 -39 43zM846 0h-670q-43 0 -43 43v1231q0 43 43 43h670q41 0 41 -43v-139q0 -43 -41 -43h-428q-25 0 -25 -23 v-266q0 -23 25 -23h350q43 0 43 -43v-139q0 -43 -43 -43h-350q-25 0 -25 -23v-284q0 -23 25 -23h428q41 0 41 -43v-139q0 -43 -41 -43z" />
<glyph unicode="&#xcc;" horiz-adv-x="546" d="M340 1448h-133q-33 0 -53 27l-166 196q-14 16 -8 28.5t26 12.5h203q41 0 61 -39l92 -182q21 -43 -22 -43zM403 1274v-1231q0 -43 -43 -43h-174q-43 0 -43 43v1231q0 43 43 43h174q43 0 43 -43z" />
<glyph unicode="&#xcd;" horiz-adv-x="546" d="M336 1712h203q23 0 28.5 -12t-8.5 -29l-166 -196q-23 -27 -55 -27h-133q-41 0 -21 43l90 182q23 39 62 39zM403 1274v-1231q0 -43 -43 -43h-174q-43 0 -43 43v1231q0 43 43 43h174q43 0 43 -43z" />
<glyph unicode="&#xce;" horiz-adv-x="542" d="M496 1448h-123q-25 0 -35 25l-68 135l-65 -135q-10 -25 -37 -25h-119q-33 0 -18 27l129 215q16 23 45 22h133q29 0 45 -22l127 -215q15 -27 -14 -27zM403 1274v-1231q0 -43 -43 -43h-174q-43 0 -43 43v1231q0 43 43 43h174q43 0 43 -43z" />
<glyph unicode="&#xcf;" horiz-adv-x="544" d="M-43 1491v180q0 41 39 41h164q41 0 41 -39v-182q0 -43 -41 -43h-164q-39 0 -39 43zM346 1491v180q0 41 39 41h164q41 0 41 -39v-182q0 -43 -41 -43h-164q-39 0 -39 43zM403 1274v-1231q0 -43 -43 -43h-174q-43 0 -43 43v1231q0 43 43 43h174q43 0 43 -43z" />
<glyph unicode="&#xd0;" horiz-adv-x="1159" d="M444 225h224q66 0 93 28t27 93v625q0 66 -27.5 93.5t-92.5 27.5h-224q-23 0 -22 -23v-291q0 -23 22 -22h156q43 0 43 -43v-107q0 -43 -43 -43h-156q-23 0 -22 -22v-293q-1 -23 22 -23zM711 0h-506q-43 0 -43 43v498q0 23 -23 22h-53q-25 0 -34 9.5t-9 33.5v107 q0 43 43 43h53q23 0 23 22v496q0 43 43 43h506q162 0 250 -86t88 -248v-649q0 -162 -88 -248t-250 -86z" />
<glyph unicode="&#xd1;" horiz-adv-x="1198" d="M502 1438q-145 0 -146 155v80q0 23 21 23h80q14 0 18 -4t4 -19v-24q0 -45 6.5 -59.5t22.5 -14.5t70 65q49 66 122 66q147 0 148 -158v-75q0 -27 -23 -27h-80q-23 0 -22 27v20q0 45 -6 59.5t-23.5 14.5t-62.5 -56q-51 -73 -129 -73zM346 0h-170q-43 0 -43 43v1231 q0 43 43 43h154q43 0 57 -29l414 -776h8v762q0 43 43 43h170q43 0 43 -43v-1231q0 -43 -43 -43h-150q-45 0 -65 41l-410 762h-8v-760q0 -43 -43 -43z" />
<glyph unicode="&#xd2;" horiz-adv-x="1130" d="M631 1448h-135q-33 0 -54 27l-166 196q-14 16 -8 28.5t27 12.5h203q43 0 61 -39l92 -182q21 -43 -20 -43zM492 225h145q66 0 93.5 28t27.5 93v625q0 66 -28 93.5t-93 27.5h-145q-66 0 -92.5 -28t-26.5 -93v-625q0 -66 26.5 -93.5t92.5 -27.5zM680 0h-229q-162 0 -250 86 t-88 248v649q0 162 88 248t250 86h229q162 0 250 -86t88 -248v-649q0 -162 -88 -248t-250 -86z" />
<glyph unicode="&#xd3;" horiz-adv-x="1130" d="M610 1712h203q20 0 26.5 -12t-8.5 -29l-165 -196q-20 -27 -54 -27h-135q-41 0 -20 43l92 182q20 39 61 39zM492 225h145q66 0 93.5 28t27.5 93v625q0 66 -28 93.5t-93 27.5h-145q-66 0 -92.5 -28t-26.5 -93v-625q0 -66 26.5 -93.5t92.5 -27.5zM680 0h-229q-162 0 -250 86 t-88 248v649q0 162 88 248t250 86h229q162 0 250 -86t88 -248v-649q0 -162 -88 -248t-250 -86z" />
<glyph unicode="&#xd4;" horiz-adv-x="1130" d="M797 1448h-123q-27 0 -35 25l-68 135l-65 -135q-10 -25 -37 -25h-121q-31 0 -16 27l129 215q16 23 45 22h133q29 0 45 -22l127 -215q15 -27 -14 -27zM492 225h145q66 0 93.5 28t27.5 93v625q0 66 -28 93.5t-93 27.5h-145q-66 0 -92.5 -28t-26.5 -93v-625 q0 -66 26.5 -93.5t92.5 -27.5zM680 0h-229q-162 0 -250 86t-88 248v649q0 162 88 248t250 86h229q162 0 250 -86t88 -248v-649q0 -162 -88 -248t-250 -86z" />
<glyph unicode="&#xd5;" horiz-adv-x="1130" d="M467 1438q-147 0 -148 155v80q0 23 23 23h80q14 0 18 -4t4 -19v-24q0 -45 6.5 -59.5t22.5 -14.5t70 65q49 66 123 66q145 0 145 -158v-75q0 -27 -20 -27h-80q-23 0 -23 27v20q0 45 -6 59.5t-23.5 14.5t-62.5 -56q-51 -73 -129 -73zM492 225h145q66 0 93.5 28t27.5 93v625 q0 66 -28 93.5t-93 27.5h-145q-66 0 -92.5 -28t-26.5 -93v-625q0 -66 26.5 -93.5t92.5 -27.5zM680 0h-229q-162 0 -250 86t-88 248v649q0 162 88 248t250 86h229q162 0 250 -86t88 -248v-649q0 -162 -88 -248t-250 -86z" />
<glyph unicode="&#xd6;" horiz-adv-x="1130" d="M250 1491v180q0 41 39 41h164q39 0 39 -39v-182q0 -43 -39 -43h-164q-39 0 -39 43zM639 1491v180q0 41 39 41h164q39 0 39 -39v-182q0 -43 -39 -43h-164q-39 0 -39 43zM492 225h145q66 0 93.5 28t27.5 93v625q0 66 -28 93.5t-93 27.5h-145q-66 0 -92.5 -28t-26.5 -93 v-625q0 -66 26.5 -93.5t92.5 -27.5zM680 0h-229q-162 0 -250 86t-88 248v649q0 162 88 248t250 86h229q162 0 250 -86t88 -248v-649q0 -162 -88 -248t-250 -86z" />
<glyph unicode="&#xd7;" horiz-adv-x="1067" d="M688 659l205 -206q35 -33 0 -68l-88 -86q-33 -35 -68 -2l-205 207l-206 -207q-33 -33 -66 2l-88 86q-35 35 -2 68l207 206l-205 203q-33 35 2 68l86 88q35 35 68 0l204 -203l203 203q35 35 70 0l86 -88q35 -33 0 -68z" />
<glyph unicode="&#xd8;" horiz-adv-x="1187" d="M1055 983v-649q0 -160 -88 -247t-248 -87h-248q-129 0 -215 57l-35 -49q-25 -33 -63 -10l-43 33q-35 25 -11 61l58 82q-29 70 -29 160v649q0 162 88 248t250 86h248q131 0 215 -60l35 50q27 35 63 10l43 -31q35 -25 12 -61l-61 -86q29 -68 29 -156zM393 971v-473l389 546 q-25 47 -106 48h-164q-66 0 -92.5 -27.5t-26.5 -93.5zM795 346v467l-387 -543q25 -45 104 -45h164q66 0 92.5 27.5t26.5 93.5z" />
<glyph unicode="&#xd9;" horiz-adv-x="1146" d="M639 1448h-133q-33 0 -55 27l-166 196q-12 16 -6 28.5t26 12.5h203q39 0 61 -39l90 -182q23 -43 -20 -43zM807 1317h172q45 0 45 -41v-942q0 -160 -89 -247t-249 -87h-225q-162 0 -250 86t-88 248v940q0 43 43 43h174q43 0 43 -43v-928q0 -66 27.5 -93.5t91.5 -27.5h141 q66 0 93.5 28t27.5 93v928q0 43 43 43z" />
<glyph unicode="&#xda;" horiz-adv-x="1146" d="M633 1712h203q20 0 26 -12t-6 -29l-168 -196q-20 -27 -53 -27h-133q-43 0 -23 43l92 182q19 39 62 39zM807 1317h172q45 0 45 -41v-942q0 -160 -89 -247t-249 -87h-225q-162 0 -250 86t-88 248v940q0 43 43 43h174q43 0 43 -43v-928q0 -66 27.5 -93.5t91.5 -27.5h141 q66 0 93.5 28t27.5 93v928q0 43 43 43z" />
<glyph unicode="&#xdb;" horiz-adv-x="1146" d="M803 1448h-121q-27 0 -37 25l-67 135l-66 -135q-10 -25 -37 -25h-119q-33 0 -18 27l129 215q16 23 45 22h133q29 0 45 -22l129 -215q15 -27 -16 -27zM807 1317h172q45 0 45 -41v-942q0 -160 -89 -247t-249 -87h-225q-162 0 -250 86t-88 248v940q0 43 43 43h174 q43 0 43 -43v-928q0 -66 27.5 -93.5t91.5 -27.5h141q66 0 93.5 28t27.5 93v928q0 43 43 43z" />
<glyph unicode="&#xdc;" horiz-adv-x="1146" d="M258 1491v180q0 41 39 41h164q39 0 39 -39v-182q0 -43 -39 -43h-164q-39 0 -39 43zM647 1491v180q0 41 39 41h164q39 0 39 -39v-182q0 -43 -39 -43h-164q-39 0 -39 43zM807 1317h172q45 0 45 -41v-942q0 -160 -89 -247t-249 -87h-225q-162 0 -250 86t-88 248v940 q0 43 43 43h174q43 0 43 -43v-928q0 -66 27.5 -93.5t91.5 -27.5h141q66 0 93.5 28t27.5 93v928q0 43 43 43z" />
<glyph unicode="&#xdd;" horiz-adv-x="1058" d="M582 1712h202q20 0 26.5 -12t-5.5 -29l-166 -196q-23 -27 -55 -27h-133q-43 0 -21 43l90 182q23 39 62 39zM616 0h-174q-43 0 -43 43v438l-374 791q-8 18 1 31.5t27 13.5h217q33 0 49 -43l205 -498h15l200 498q14 43 49 43h218q20 0 29 -12.5t-1 -32.5l-375 -791v-438 q0 -43 -43 -43z" />
<glyph unicode="&#xde;" horiz-adv-x="1032" d="M444 496h129q66 0 92.5 26.5t26.5 91.5v84q0 66 -26.5 93.5t-92.5 27.5h-129q-23 0 -22 -22v-279q-1 -22 22 -22zM379 0h-174q-43 0 -43 43v1231q0 43 43 43h174q43 0 43 -43v-207q0 -23 24 -23h170q160 0 249 -87t89 -246v-109q0 -160 -89 -247t-249 -87h-170 q-25 0 -24 -22v-203q0 -43 -43 -43z" />
<glyph unicode="&#xdf;" horiz-adv-x="1112" d="M575 762h31q68 0 98.5 28.5t30.5 92.5v98q0 63 -29.5 90t-95.5 27h-116q-63 0 -91 -27t-28 -90v-938q0 -43 -43 -43h-174q-43 0 -43 43v940q0 162 88 248t250 86h198q162 0 250 -88t88 -250v-109q0 -168 -145 -215q84 -12 125 -78.5t41 -160.5v-101q0 -315 -338 -315 h-123q-25 0 -34 9t-9 32v133q0 43 43 43h82q66 0 95.5 27.5t29.5 91.5v86q0 121 -131 121h-50q-25 0 -32.5 9t-7.5 32v135q-1 43 40 43z" />
<glyph unicode="&#xe0;" d="M653 1176h-133q-33 0 -55 26l-166 197q-12 16 -6 28.5t26 12.5h203q43 0 62 -39l92 -182q20 -43 -23 -43zM479 0h-49q-162 0 -250 86t-88 248v377q0 162 88 247.5t250 85.5h473q45 0 45 -43v-958q0 -43 -45 -43h-172q-43 0 -43 43v68h-8q-23 -55 -80.5 -83t-120.5 -28z M688 381v416q0 23 -24 22h-193q-66 0 -92.5 -27.5t-26.5 -93.5v-352q0 -66 27 -93.5t92 -27.5h76q141 0 141 156z" />
<glyph unicode="&#xe1;" d="M616 1440h203q20 0 26.5 -12.5t-7.5 -28.5l-166 -197q-23 -27 -58 -26h-131q-41 0 -20 43l92 182q18 39 61 39zM479 0h-49q-162 0 -250 86t-88 248v377q0 162 88 247.5t250 85.5h473q45 0 45 -43v-958q0 -43 -45 -43h-172q-43 0 -43 43v68h-8q-23 -55 -80.5 -83 t-120.5 -28zM688 381v416q0 23 -24 22h-193q-66 0 -92.5 -27.5t-26.5 -93.5v-352q0 -66 27 -93.5t92 -27.5h76q141 0 141 156z" />
<glyph unicode="&#xe2;" d="M776 1176h-123q-27 0 -35 24l-67 135l-66 -135q-10 -25 -36 -24h-121q-31 0 -17 26l129 215q16 23 45 23h133q29 0 46 -23l127 -215q14 -26 -15 -26zM479 0h-49q-162 0 -250 86t-88 248v377q0 162 88 247.5t250 85.5h473q45 0 45 -43v-958q0 -43 -45 -43h-172 q-43 0 -43 43v68h-8q-23 -55 -80.5 -83t-120.5 -28zM688 381v416q0 23 -24 22h-193q-66 0 -92.5 -27.5t-26.5 -93.5v-352q0 -66 27 -93.5t92 -27.5h76q141 0 141 156z" />
<glyph unicode="&#xe3;" d="M313 1331v78q0 14 4.5 19.5t18.5 5.5h80q20 0 20 -25v-23q0 -43 7.5 -58t21.5 -15t25.5 11t53.5 64.5t113 53.5q147 0 148 -156v-76q0 -27 -21 -26h-82q-20 0 -20 26v19q0 47 -7 61.5t-22.5 14.5t-23.5 -8.5t-39 -49.5q-53 -72 -129 -71q-148 -1 -148 155zM479 0h-49 q-162 0 -250 86t-88 248v377q0 162 88 247.5t250 85.5h473q45 0 45 -43v-958q0 -43 -45 -43h-172q-43 0 -43 43v68h-8q-23 -55 -80.5 -83t-120.5 -28zM688 381v416q0 23 -24 22h-193q-66 0 -92.5 -27.5t-26.5 -93.5v-352q0 -66 27 -93.5t92 -27.5h76q141 0 141 156z" />
<glyph unicode="&#xe4;" d="M248 1219v180q0 41 39 41h164q39 0 38 -39v-182q0 -43 -38 -43h-164q-39 0 -39 43zM637 1219v180q0 41 39 41h164q39 0 39 -39v-182q0 -43 -39 -43h-164q-39 0 -39 43zM479 0h-49q-162 0 -250 86t-88 248v377q0 162 88 247.5t250 85.5h473q45 0 45 -43v-958 q0 -43 -45 -43h-172q-43 0 -43 43v68h-8q-23 -55 -80.5 -83t-120.5 -28zM688 381v416q0 23 -24 22h-193q-66 0 -92.5 -27.5t-26.5 -93.5v-352q0 -66 27 -93.5t92 -27.5h76q141 0 141 156z" />
<glyph unicode="&#xe5;" d="M688 381v416q0 23 -24 22h-193q-66 0 -92.5 -27.5t-26.5 -93.5v-352q0 -66 27 -93.5t92 -27.5h76q141 0 141 156zM479 0h-49q-162 0 -250 86t-88 248v377q0 162 88 247.5t250 85.5h473q45 0 45 -43v-958q0 -43 -45 -43h-172q-43 0 -43 43v68h-8q-23 -55 -80.5 -83 t-120.5 -28zM479 1339v-61q0 -33 12.5 -44t43.5 -11h32q31 0 43.5 11t12.5 44v61q0 35 -11.5 46.5t-42.5 11.5h-34q-31 0 -43.5 -11.5t-12.5 -46.5zM391 1243v139q0 94 101 95h118q102 0 103 -95v-139q0 -98 -103 -98h-118q-101 0 -101 98z" />
<glyph unicode="&#xe6;" horiz-adv-x="1546" d="M922 375v-29q0 -66 27.5 -93.5t92.5 -27.5h377q43 0 43 -43v-141q0 -23 -9 -32t-34 -9h-420q-172 0 -256 117q-68 -117 -288 -117h-33q-158 0 -248 83t-90 236v23q0 317 338 317h225q14 0 15 17v26q0 63 -29 90t-90 27h-334q-41 0 -41 43v139q0 43 41 43h326 q195 0 258 -112q63 113 243 112h90q160 0 248 -87t88 -246v-271q0 -43 -43 -43h-473q-24 1 -24 -22zM1237 596v102q0 66 -27.5 93.5t-93.5 27.5h-72q-66 0 -94 -27.5t-28 -91.5v-104q0 -23 22 -23h268q25 0 25 23zM664 365v88q0 23 -25 22h-174q-78 0 -107.5 -27.5 t-29.5 -93.5v-18q0 -70 30.5 -98.5t106.5 -28.5h57q78 0 110 37t32 119z" />
<glyph unicode="&#xe7;" horiz-adv-x="841" d="M735 819h-264q-63 0 -91 -27.5t-28 -93.5v-352q0 -66 28 -93.5t91 -27.5h264q43 0 43 -43v-141q0 -23 -9 -32t-34 -9h-121l-67 -68v-8q152 0 151 -153v-37q0 -143 -192 -144h-92q-25 0 -32 7.5t-7 29.5v41q0 23 8 31t31 8h67q55 0 73.5 9.5t18.5 37.5v4q0 31 -18 40 t-74 9h-53q-37 0 -50 40t13 73l68 80h-29q-162 0 -250 86t-88 248v377q0 162 88 247.5t250 85.5h305q43 0 43 -43v-141q0 -23 -9 -32t-34 -9z" />
<glyph unicode="&#xe8;" horiz-adv-x="1011" d="M594 1176h-133q-33 0 -53 26l-168 197q-12 16 -6 28.5t26 12.5h203q41 0 61 -39l92 -182q21 -43 -22 -43zM883 0h-453q-162 0 -250 86t-88 248v377q0 162 88 247.5t250 85.5h162q162 0 250 -86t88 -247v-260q0 -43 -43 -43h-514q-25 0 -25 -23v-45q0 -63 27.5 -91 t93.5 -28h414q43 0 43 -45v-135q0 -23 -9 -32t-34 -9zM373 582h278q23 0 23 22v98q0 66 -26.5 92.5t-92.5 26.5h-86q-66 0 -92.5 -26.5t-26.5 -92.5v-98q0 -22 23 -22z" />
<glyph unicode="&#xe9;" horiz-adv-x="1011" d="M578 1440h200q23 0 29 -12.5t-8 -28.5l-166 -197q-23 -27 -58 -26h-131q-41 0 -20 43l92 182q21 39 62 39zM883 0h-453q-162 0 -250 86t-88 248v377q0 162 88 247.5t250 85.5h162q162 0 250 -86t88 -247v-260q0 -43 -43 -43h-514q-25 0 -25 -23v-45q0 -63 27.5 -91 t93.5 -28h414q43 0 43 -45v-135q0 -23 -9 -32t-34 -9zM373 582h278q23 0 23 22v98q0 66 -26.5 92.5t-92.5 26.5h-86q-66 0 -92.5 -26.5t-26.5 -92.5v-98q0 -22 23 -22z" />
<glyph unicode="&#xea;" horiz-adv-x="1011" d="M745 1176h-120q-27 0 -37 24l-66 135l-67 -135q-8 -25 -35 -24h-121q-31 0 -16 26l127 215q16 23 45 23h133q29 0 45 -23l129 -215q14 -26 -17 -26zM883 0h-453q-162 0 -250 86t-88 248v377q0 162 88 247.5t250 85.5h162q162 0 250 -86t88 -247v-260q0 -43 -43 -43h-514 q-25 0 -25 -23v-45q0 -63 27.5 -91t93.5 -28h414q43 0 43 -45v-135q0 -23 -9 -32t-34 -9zM373 582h278q23 0 23 22v98q0 66 -26.5 92.5t-92.5 26.5h-86q-66 0 -92.5 -26.5t-26.5 -92.5v-98q0 -22 23 -22z" />
<glyph unicode="&#xeb;" horiz-adv-x="1011" d="M205 1219v180q0 41 41 41h162q41 0 41 -39v-182q0 -43 -41 -43h-162q-41 0 -41 43zM594 1219v180q0 41 41 41h162q41 0 41 -39v-182q0 -43 -41 -43h-162q-41 0 -41 43zM883 0h-453q-162 0 -250 86t-88 248v377q0 162 88 247.5t250 85.5h162q162 0 250 -86t88 -247v-260 q0 -43 -43 -43h-514q-25 0 -25 -23v-45q0 -63 27.5 -91t93.5 -28h414q43 0 43 -45v-135q0 -23 -9 -32t-34 -9zM373 582h278q23 0 23 22v98q0 66 -26.5 92.5t-92.5 26.5h-86q-66 0 -92.5 -26.5t-26.5 -92.5v-98q0 -22 23 -22z" />
<glyph unicode="&#xec;" horiz-adv-x="505" d="M317 1176h-133q-33 0 -53 26l-166 197q-14 16 -8 28.5t27 12.5h202q43 0 62 -39l92 -182q20 -43 -23 -43zM123 43v958q0 43 41 43h176q43 0 43 -43v-958q0 -27 -9 -35t-32 -8h-176q-43 0 -43 43z" />
<glyph unicode="&#xed;" horiz-adv-x="505" d="M322 1440h200q23 0 29 -12.5t-8 -28.5l-166 -197q-23 -27 -58 -26h-131q-41 0 -20 43l92 182q19 39 62 39zM123 43v958q0 43 41 43h176q43 0 43 -43v-958q0 -27 -9 -35t-32 -8h-176q-43 0 -43 43z" />
<glyph unicode="&#xee;" horiz-adv-x="503" d="M477 1176h-123q-27 0 -35 24l-67 135l-66 -135q-10 -25 -36 -24h-121q-31 0 -17 26l129 215q16 23 45 23h133q29 0 46 -23l127 -215q14 -26 -15 -26zM123 43v958q0 43 41 43h176q43 0 43 -43v-958q0 -27 -9 -35t-32 -8h-176q-43 0 -43 43z" />
<glyph unicode="&#xef;" horiz-adv-x="503" d="M-63 1219v180q0 41 38 41h164q41 0 41 -39v-182q0 -43 -41 -43h-164q-38 0 -38 43zM326 1219v180q0 41 39 41h163q41 0 41 -39v-182q0 -43 -41 -43h-163q-39 0 -39 43zM123 43v958q0 43 41 43h176q43 0 43 -43v-958q0 -27 -9 -35t-32 -8h-176q-43 0 -43 43z" />
<glyph unicode="&#xf0;" horiz-adv-x="1038" d="M930 633v-299q0 -160 -88 -247t-248 -87h-164q-162 0 -250 86t-88 248v172q0 162 88 248t250 86h49q66 0 131.5 -28t87.5 -83h9q-18 74 -70 125l-174 195l-164 -138q-29 -23 -59 11l-62 73q-20 31 6 54l158 133l-115 129q-39 41 9 78l86 63q39 29 75 -8l111 -123l168 141 q35 29 57 0l64 -78q27 -39 -4 -63l-162 -135l194 -215q59 -68 82 -143.5t23 -194.5zM670 346v113q0 78 -22.5 116.5t-100.5 38.5h-58q-137 0 -137 -120v-148q0 -66 27 -93.5t92 -27.5h80q66 0 92.5 27.5t26.5 93.5z" />
<glyph unicode="&#xf1;" horiz-adv-x="1071" d="M274 1331v78q0 25 23 25h80q14 0 18 -5.5t4 -19.5v-23q0 -45 6.5 -59t22.5 -14t67.5 64.5t125.5 64.5q145 0 145 -156v-76q0 -27 -21 -26h-79q-23 0 -23 26v19q0 47 -6 61.5t-23.5 14.5t-62.5 -58q-51 -72 -129 -71q-148 -1 -148 155zM330 0h-174q-43 0 -43 43v958 q0 43 43 43h174q43 0 43 -43v-67h8q45 111 201 110h65q322 0 322 -333v-668q0 -43 -45 -43h-172q-43 0 -43 43v655q0 66 -28 93.5t-93 27.5h-74q-141 0 -141 -155v-621q0 -43 -43 -43z" />
<glyph unicode="&#xf2;" horiz-adv-x="1042" d="M598 1176h-133q-33 0 -55 26l-166 197q-12 16 -6 28.5t26 12.5h203q41 0 61 -39l90 -182q23 -43 -20 -43zM612 0h-182q-162 0 -250 86t-88 248v377q0 162 88 247.5t250 85.5h182q160 0 249 -87t89 -246v-377q0 -160 -89 -247t-249 -87zM469 223h104q66 0 93.5 26.5 t27.5 92.5v360q0 66 -27.5 92.5t-93.5 26.5h-104q-66 0 -92.5 -26.5t-26.5 -92.5v-360q0 -66 26.5 -92.5t92.5 -26.5z" />
<glyph unicode="&#xf3;" horiz-adv-x="1042" d="M584 1440h202q23 0 29 -12.5t-8 -28.5l-166 -197q-27 -27 -57 -26h-131q-43 0 -21 43l90 182q23 39 62 39zM612 0h-182q-162 0 -250 86t-88 248v377q0 162 88 247.5t250 85.5h182q160 0 249 -87t89 -246v-377q0 -160 -89 -247t-249 -87zM469 223h104q66 0 93.5 26.5 t27.5 92.5v360q0 66 -27.5 92.5t-93.5 26.5h-104q-66 0 -92.5 -26.5t-26.5 -92.5v-360q0 -66 26.5 -92.5t92.5 -26.5z" />
<glyph unicode="&#xf4;" horiz-adv-x="1042" d="M745 1176h-122q-27 0 -35 24l-68 135l-65 -135q-10 -25 -37 -24h-121q-31 0 -16 26l129 215q16 23 45 23h133q29 0 45 -23l127 -215q14 -26 -15 -26zM612 0h-182q-162 0 -250 86t-88 248v377q0 162 88 247.5t250 85.5h182q160 0 249 -87t89 -246v-377q0 -160 -89 -247 t-249 -87zM469 223h104q66 0 93.5 26.5t27.5 92.5v360q0 66 -27.5 92.5t-93.5 26.5h-104q-66 0 -92.5 -26.5t-26.5 -92.5v-360q0 -66 26.5 -92.5t92.5 -26.5z" />
<glyph unicode="&#xf5;" horiz-adv-x="1042" d="M258 1331v78q0 25 23 25h79q14 0 18.5 -5.5t4.5 -19.5v-23q0 -45 6 -59t22.5 -14t67.5 64.5t125 64.5q145 0 146 -156v-76q0 -27 -21 -26h-80q-23 0 -22 26v19q0 47 -6.5 61.5t-23.5 14.5t-62 -58q-49 -72 -129 -71q-148 -1 -148 155zM612 0h-182q-162 0 -250 86t-88 248 v377q0 162 88 247.5t250 85.5h182q160 0 249 -87t89 -246v-377q0 -160 -89 -247t-249 -87zM469 223h104q66 0 93.5 26.5t27.5 92.5v360q0 66 -27.5 92.5t-93.5 26.5h-104q-66 0 -92.5 -26.5t-26.5 -92.5v-360q0 -66 26.5 -92.5t92.5 -26.5z" />
<glyph unicode="&#xf6;" horiz-adv-x="1042" d="M205 1219v180q0 41 41 41h162q41 0 41 -39v-182q0 -43 -41 -43h-162q-41 0 -41 43zM594 1219v180q0 41 41 41h162q41 0 41 -39v-182q0 -43 -41 -43h-162q-41 0 -41 43zM612 0h-182q-162 0 -250 86t-88 248v377q0 162 88 247.5t250 85.5h182q160 0 249 -87t89 -246v-377 q0 -160 -89 -247t-249 -87zM469 223h104q66 0 93.5 26.5t27.5 92.5v360q0 66 -27.5 92.5t-93.5 26.5h-104q-66 0 -92.5 -26.5t-26.5 -92.5v-360q0 -66 26.5 -92.5t92.5 -26.5z" />
<glyph unicode="&#xf7;" horiz-adv-x="950" d="M389 328v100q0 41 43 41h88q45 0 45 -41v-100q0 -43 -45 -43h-88q-43 0 -43 43zM764 569h-576q-43 0 -43 43v88q0 43 43 43h576q41 0 41 -43v-88q0 -43 -41 -43zM389 885v100q0 43 43 43h88q45 0 45 -43v-100q0 -41 -45 -41h-88q-43 0 -43 41z" />
<glyph unicode="&#xf8;" horiz-adv-x="1064" d="M963 711v-377q0 -160 -89.5 -247t-248.5 -87h-183q-160 0 -249 86l-56 -55q-37 -31 -61 0l-31 30q-33 29 -2 64l80 80q-18 55 -19 129v377q0 162 88.5 247.5t249.5 85.5h183q162 0 249 -88l56 56q31 33 61 2l33 -31q33 -33 0 -63l-80 -80q19 -57 19 -129zM365 698v-252 l323 324q-23 49 -106 49h-99q-66 0 -92 -27.5t-26 -93.5zM700 346v250l-321 -324q23 -47 104 -47h99q66 0 92 27.5t26 93.5z" />
<glyph unicode="&#xf9;" horiz-adv-x="1071" d="M604 1176h-135q-33 0 -53 26l-166 197q-14 16 -8 28.5t26 12.5h203q41 0 61 -39l93 -182q20 -43 -21 -43zM489 0h-67q-158 0 -239 86t-81 248v667q0 43 43 43h174q43 0 43 -43v-655q0 -66 28 -93.5t91 -27.5h76q141 0 141 156v620q0 43 43 43h172q45 0 45 -43v-958 q0 -43 -45 -43h-172q-43 0 -43 43v68h-8q-23 -55 -80.5 -83t-120.5 -28z" />
<glyph unicode="&#xfa;" horiz-adv-x="1071" d="M584 1440h202q20 0 26.5 -12.5t-5.5 -28.5l-168 -197q-23 -27 -57 -26h-129q-43 0 -23 43l92 182q19 39 62 39zM489 0h-67q-158 0 -239 86t-81 248v667q0 43 43 43h174q43 0 43 -43v-655q0 -66 28 -93.5t91 -27.5h76q141 0 141 156v620q0 43 43 43h172q45 0 45 -43v-958 q0 -43 -45 -43h-172q-43 0 -43 43v68h-8q-23 -55 -80.5 -83t-120.5 -28z" />
<glyph unicode="&#xfb;" horiz-adv-x="1071" d="M756 1176h-123q-27 0 -37 24l-66 135l-65 -135q-10 -25 -37 -24h-121q-31 0 -16 26l127 215q16 23 47 23h131q31 0 47 -23l127 -215q15 -26 -14 -26zM489 0h-67q-158 0 -239 86t-81 248v667q0 43 43 43h174q43 0 43 -43v-655q0 -66 28 -93.5t91 -27.5h76q141 0 141 156 v620q0 43 43 43h172q45 0 45 -43v-958q0 -43 -45 -43h-172q-43 0 -43 43v68h-8q-23 -55 -80.5 -83t-120.5 -28z" />
<glyph unicode="&#xfc;" horiz-adv-x="1071" d="M215 1219v180q0 41 39 41h164q39 0 39 -39v-182q0 -43 -39 -43h-164q-39 0 -39 43zM604 1219v180q0 41 39 41h164q39 0 39 -39v-182q0 -43 -39 -43h-164q-39 0 -39 43zM489 0h-67q-158 0 -239 86t-81 248v667q0 43 43 43h174q43 0 43 -43v-655q0 -66 28 -93.5t91 -27.5 h76q141 0 141 156v620q0 43 43 43h172q45 0 45 -43v-958q0 -43 -45 -43h-172q-43 0 -43 43v68h-8q-23 -55 -80.5 -83t-120.5 -28z" />
<glyph unicode="&#xfd;" horiz-adv-x="966" d="M541 1440h200q23 0 29 -12.5t-8 -28.5l-166 -197q-23 -27 -57 -26h-131q-41 0 -21 43l92 182q21 39 62 39zM283 -346h-131q-41 0 -41 45v137q0 45 41 45h43q129 0 175 36t70 138h-108q-39 0 -51 43l-240 903q-12 43 31 43h182q41 0 51 -43l176 -755h8l175 755q8 43 51 43 h172q51 0 41 -45l-250 -999q-45 -170 -139 -258t-256 -88z" />
<glyph unicode="&#xfe;" horiz-adv-x="1079" d="M516 225h90q66 0 93.5 28t27.5 93v352q0 66 -27.5 93.5t-93.5 27.5h-90q-141 0 -141 -155v-283q0 -156 141 -156zM375 111v-340q0 -43 -43 -43h-174q-43 0 -43 43v1626q0 43 43 43h174q43 0 43 -43v-463h8q23 55 80 82.5t121 27.5h65q162 0 250 -86t88 -247v-377 q0 -162 -88 -248t-250 -86h-65q-63 0 -120.5 27.5t-80.5 83.5h-8z" />
<glyph unicode="&#xff;" horiz-adv-x="966" d="M170 1219v180q0 41 39 41h164q41 0 41 -39v-182q0 -43 -41 -43h-164q-39 0 -39 43zM559 1219v180q0 41 39 41h164q41 0 41 -39v-182q0 -43 -41 -43h-164q-39 0 -39 43zM283 -346h-131q-41 0 -41 45v137q0 45 41 45h43q129 0 175 36t70 138h-108q-39 0 -51 43l-240 903 q-12 43 31 43h182q41 0 51 -43l176 -755h8l175 755q8 43 51 43h172q51 0 41 -45l-250 -999q-45 -170 -139 -258t-256 -88z" />
<glyph unicode="&#x152;" horiz-adv-x="1599" d="M129 334v649q0 162 88 248t250 86h977q43 0 43 -43v-139q0 -43 -43 -43h-412q-23 0 -22 -23v-266q0 -23 22 -23h336q41 0 41 -43v-139q0 -43 -41 -43h-336q-23 0 -22 -23v-284q0 -23 22 -23h412q43 0 43 -43v-139q0 -43 -43 -43h-977q-162 0 -250 86t-88 248zM510 225 h217q25 0 25 23v821q0 23 -25 23h-217q-66 0 -92.5 -28t-26.5 -93v-625q0 -66 26.5 -93.5t92.5 -27.5z" />
<glyph unicode="&#x153;" horiz-adv-x="1611" d="M578 0h-148q-162 0 -250 86t-88 248v377q0 162 88 247.5t250 85.5h131q188 0 277 -122q68 123 256 122h96q160 0 249 -87t89 -246v-260q0 -43 -45 -43h-510q-23 0 -23 -23v-39q0 -66 27 -93.5t92 -27.5h412q41 0 41 -43v-141q0 -23 -8.5 -32t-32.5 -9h-404 q-113 0 -172 30.5t-104 102.5q-43 -133 -223 -133zM973 582h270q25 0 25 22v94q0 66 -28 93.5t-91 27.5h-80q-66 0 -92.5 -27.5t-26.5 -93.5v-94q0 -22 23 -22zM471 225h98q66 0 92.5 28t26.5 93v352q0 66 -26.5 93.5t-92.5 27.5h-98q-66 0 -92.5 -27.5t-26.5 -93.5v-352 q0 -66 26.5 -93.5t92.5 -27.5z" />
<glyph unicode="&#x178;" horiz-adv-x="1058" d="M213 1491v180q0 41 39 41h164q39 0 39 -39v-182q0 -43 -39 -43h-164q-39 0 -39 43zM602 1491v180q0 41 39 41h164q39 0 39 -39v-182q0 -43 -39 -43h-164q-39 0 -39 43zM616 0h-174q-43 0 -43 43v438l-374 791q-8 18 1 31.5t27 13.5h217q33 0 49 -43l205 -498h15l200 498 q14 43 49 43h218q20 0 29 -12.5t-1 -32.5l-375 -791v-438q0 -43 -43 -43z" />
<glyph unicode="&#x2c6;" horiz-adv-x="706" d="M578 1176h-123q-27 0 -37 24l-66 135l-65 -135q-10 -25 -37 -24h-121q-31 0 -16 26l127 215q16 23 47 23h131q31 0 47 -23l127 -215q15 -26 -14 -26z" />
<glyph unicode="&#x2dc;" horiz-adv-x="720" d="M109 1331v78q0 25 20 25h82q20 0 20 -25v-23q0 -43 7.5 -58t22.5 -15t67.5 64.5t124.5 64.5q147 0 147 -156v-76q0 -27 -20 -26h-82q-20 0 -21 26v19q0 47 -7 61.5t-22.5 14.5t-23.5 -8.5t-39 -49.5q-53 -72 -129 -71q-147 -1 -147 155z" />
<glyph unicode="&#x2000;" horiz-adv-x="895" />
<glyph unicode="&#x2001;" horiz-adv-x="1790" />
<glyph unicode="&#x2002;" horiz-adv-x="895" />
<glyph unicode="&#x2003;" horiz-adv-x="1790" />
<glyph unicode="&#x2004;" horiz-adv-x="596" />
<glyph unicode="&#x2005;" horiz-adv-x="447" />
<glyph unicode="&#x2006;" horiz-adv-x="298" />
<glyph unicode="&#x2007;" horiz-adv-x="298" />
<glyph unicode="&#x2008;" horiz-adv-x="223" />
<glyph unicode="&#x2009;" horiz-adv-x="358" />
<glyph unicode="&#x200a;" horiz-adv-x="99" />
<glyph unicode="&#x2010;" horiz-adv-x="638" d="M514 549h-389q-43 0 -43 43v121q0 45 43 45h389q43 0 43 -45v-121q0 -43 -43 -43z" />
<glyph unicode="&#x2011;" horiz-adv-x="638" d="M514 549h-389q-43 0 -43 43v121q0 45 43 45h389q43 0 43 -45v-121q0 -43 -43 -43z" />
<glyph unicode="&#x2012;" horiz-adv-x="638" d="M514 549h-389q-43 0 -43 43v121q0 45 43 45h389q43 0 43 -45v-121q0 -43 -43 -43z" />
<glyph unicode="&#x2013;" horiz-adv-x="808" d="M686 582h-561q-43 0 -43 45v86q0 45 43 45h561q41 0 41 -45v-86q0 -45 -41 -45z" />
<glyph unicode="&#x2014;" horiz-adv-x="1296" d="M82 627v86q0 45 43 45h1049q41 0 40 -45v-86q0 -45 -40 -45h-1049q-43 0 -43 45z" />
<glyph unicode="&#x2018;" horiz-adv-x="378" d="M76 866v62q0 72 47 162l108 206q14 20 37 21q37 0 37 -41v-408q0 -41 -41 -41h-147q-41 0 -41 39z" />
<glyph unicode="&#x2019;" horiz-adv-x="378" d="M305 1278v-61q0 -63 -47 -162l-108 -207q-14 -20 -39 -21q-35 0 -35 41v408q0 41 41 41h147q41 0 41 -39z" />
<glyph unicode="&#x201a;" horiz-adv-x="382" d="M307 221v-61q0 -68 -47 -162l-108 -207q-14 -20 -39 -20q-35 0 -35 41v407q0 41 41 41h147q41 0 41 -39z" />
<glyph unicode="&#x201c;" horiz-adv-x="710" d="M408 866v62q0 72 47 162l108 206q14 20 37 21q37 0 37 -41v-408q0 -41 -41 -41h-147q-41 0 -41 39zM76 866v62q0 72 47 162l108 206q14 20 37 21q37 0 37 -41v-408q0 -41 -41 -41h-147q-41 0 -41 39z" />
<glyph unicode="&#x201d;" horiz-adv-x="710" d="M305 1278v-61q0 -63 -47 -162l-108 -207q-14 -20 -39 -21q-35 0 -35 41v408q0 41 41 41h147q41 0 41 -39zM637 1278v-61q0 -63 -47 -162l-109 -207q-14 -20 -39 -21q-35 0 -34 41v408q0 41 41 41h147q41 0 41 -39z" />
<glyph unicode="&#x201e;" horiz-adv-x="714" d="M307 219v-61q0 -63 -47 -162l-108 -207q-14 -20 -39 -20q-35 0 -35 41v407q0 41 41 41h147q41 0 41 -39zM639 219v-61q0 -63 -47 -162l-109 -207q-14 -20 -39 -20q-35 0 -34 41v407q0 41 41 41h147q41 0 41 -39z" />
<glyph unicode="&#x2022;" horiz-adv-x="602" d="M481 719v-125q0 -70 -39 -106.5t-108 -36.5h-68q-72 0 -109.5 36.5t-37.5 106.5v125q0 68 39 105.5t108 37.5h68q70 0 108.5 -37.5t38.5 -105.5z" />
<glyph unicode="&#x2026;" horiz-adv-x="1243" d="M340 295v-252q0 -43 -39 -43h-182q-41 0 -41 45v248q0 41 41 41h182q39 0 39 -39zM760 295v-252q0 -43 -39 -43h-182q-41 0 -41 45v248q0 41 41 41h182q39 0 39 -39zM1165 295v-252q0 -43 -39 -43h-182q-41 0 -41 45v248q0 41 41 41h182q39 0 39 -39z" />
<glyph unicode="&#x202f;" horiz-adv-x="358" />
<glyph unicode="&#x2039;" horiz-adv-x="573" d="M481 324v-129q0 -23 -12 -29t-31 8l-305 236q-25 18 -33 31.5t-8 43.5v84q0 43 41 72l305 236q18 14 30.5 8t12.5 -29v-129q0 -35 -41 -61l-186 -140l186 -141q41 -26 41 -61z" />
<glyph unicode="&#x203a;" horiz-adv-x="573" d="M92 727v129q0 23 11.5 29t29.5 -8l307 -236q41 -29 41 -72v-84q0 -31 -8 -44t-33 -31l-307 -236q-18 -14 -29.5 -8t-11.5 29v129q0 35 39 61l188 141l-188 140q-39 26 -39 61z" />
<glyph unicode="&#x205f;" horiz-adv-x="447" />
<glyph unicode="&#x20ac;" horiz-adv-x="1120" d="M655 0h-133q-162 0 -250 86t-88 246v98h-90q-47 0 -47 49v78q0 27 10.5 38t36.5 11h90v90h-90q-47 0 -47 47v78q0 27 10.5 38t36.5 11h90v115q0 160 88 246t250 86h133q162 0 250 -86t88 -246v-41q0 -43 -43 -43h-174q-43 0 -43 43v37q0 66 -27.5 92.5t-93.5 26.5h-47 q-68 0 -97.5 -28t-29.5 -91v-111h189q27 0 37 -11t10 -38v-78q0 -47 -47 -47h-189v-90h189q27 0 37 -11t10 -38v-78q0 -49 -47 -49h-189v-94q0 -63 30 -91t97 -28h47q66 0 93.5 26.5t27.5 92.5v37q0 43 43 43h174q43 0 43 -43v-41q0 -160 -88 -246t-250 -86z" />
<glyph unicode="&#x2122;" horiz-adv-x="1206" d="M958 1317h136q20 0 20 -21v-458q0 -23 -20 -23h-78q-23 0 -23 23v336h-4l-80 -213q0 -20 -20 -21h-86q-12 0 -23 21l-80 213h-6v-336q0 -23 -20 -23h-78q-20 0 -21 23v458q0 20 21 21h137q16 0 21 -14l90 -230h4l90 230q4 14 20 14zM233 838v374h-120q-20 0 -21 21v63 q0 20 21 21h358q23 0 23 -21v-63q0 -20 -23 -21h-119v-374q0 -23 -18 -23h-78q-23 0 -23 23z" />
<glyph unicode="&#x25fc;" horiz-adv-x="1044" d="M0 1044h1044v-1044h-1044v1044z" />
</font>
</defs>
</svg>
